<svg width="12847" height="15245" viewBox="0 0 12847 15245" fill="none" xmlns="http://www.w3.org/2000/svg">
<g clip-path="url(#clip0_3009_4880)">
<path d="M13455.5 10358.4C13444.5 10459.1 13362.2 10497.6 13290.8 10536C13221.2 10572.6 13210.2 10611 13235.9 10680.6C13338.4 10969.8 13226.7 11215.1 13067.5 11447.5C12943 11626.9 12767.3 11744.1 12565.9 11826.4C12421.3 11885 12307.8 11983.9 12218.1 12112C12177.9 12168.7 12166.9 12223.7 12207.1 12287.7C12326.1 12478.1 12359.1 12688.6 12338.9 12910.1C12328 13021.7 12285.9 13127.9 12238.3 13228.6C12192.5 13327.4 12196.2 13336.6 12295 13387.8C12384.7 13433.6 12472.6 13481.2 12560.4 13528.8C12677.6 13591 12684.9 13592.8 12754.4 13479.3C12842.3 13338.4 12957.6 13221.2 13091.2 13126.1C13259.6 13007.1 13451.8 12928.4 13656.9 12921.1C13979 12908.2 14277.4 13124.2 14273.7 13450C14271.9 13636.8 14165.7 13772.2 14015.6 13876.5C13907.6 13951.6 13900.3 13993.7 13962.5 14114.5C14004.6 14198.7 14059.5 14275.6 14088.8 14367.1C14118.1 14456.8 14123.6 14546.5 14101.6 14636.2C14087 14696.6 14101.6 14729.5 14156.6 14760.6C14346.9 14865 14469.6 15022.4 14513.5 15238.4C13867.4 15238.4 13221.2 15238.4 12576.9 15238.4C12558.6 15214.6 12529.3 15210.9 12505.5 15203.6C12364.6 15156 12225.5 15104.8 12080.8 15064.5C11989.3 15038.9 11949.1 14998.6 11956.4 14899.8C11965.5 14780.8 11958.2 14661.8 11958.2 14542.8C11958.2 14326.8 11965.5 14319.5 12185.2 14321.3C12249.2 14321.3 12296.8 14332.3 12280.4 14412.9C12276.7 14427.5 12276.7 14445.8 12296.8 14449.5C12322.5 14453.1 12326.1 14433 12326.1 14414.7C12326.1 14350.6 12326.1 14286.6 12324.3 14222.5C12324.3 14206 12318.8 14191.4 12300.5 14189.5C12278.5 14189.5 12267.6 14202.4 12271.2 14224.3C12280.4 14290.2 12238.3 14290.2 12192.5 14290.2C12141.3 14288.4 12088.2 14288.4 12036.9 14292C11978.3 14293.9 11954.5 14268.3 11956.4 14209.7C11960 14131 11958.2 14052.3 11958.2 13971.7C11958.2 13913.1 11941.7 13849.1 12038.7 13805.2C11941.7 13794.2 11877.7 13781.4 11815.4 13827.1C11907 13816.1 11927.1 13860.1 11917.9 13935.1C11914.3 13964.4 11916.1 13995.5 11917.9 14026.6C11919.8 14076.1 11916.1 14120 11846.6 14110.8C11830.1 14109 11808.1 14116.3 11811.8 14142C11815.4 14162.1 11833.7 14162.1 11848.4 14160.3C11908.8 14152.9 11923.4 14184.1 11919.8 14235.3C11916.1 14297.5 11872.2 14286.6 11831.9 14286.6C11764.2 14286.6 11698.3 14286.6 11630.6 14286.6C11703.8 14328.7 11778.8 14321.3 11852 14321.3C11896 14321.3 11919.8 14332.3 11919.8 14383.6C11917.9 14575.8 11917.9 14768 11919.8 14958.3C11919.8 14998.6 11907 15005.9 11872.2 14994.9C11676.3 14930.9 11478.6 14868.6 11282.8 14804.6C11220.5 14784.4 11194.9 14735 11198.6 14669.1C11205.9 14553.8 11196.7 14546.5 11081.4 14544.6C10889.2 14544.6 10697 14544.6 10506.7 14541C10385.9 14539.2 10274.2 14502.5 10168 14445.8C10138.8 14429.3 10105.8 14414.7 10115 14370.8C10140.6 14231.6 10109.5 14090.7 10122.3 13951.6C10129.6 13876.5 10107.6 13847.3 10028.9 13847.3C9809.27 13847.3 9589.62 13838.1 9371.8 13834.4C9311.4 13832.6 9278.45 13812.5 9271.13 13744.7C9227.2 13351.2 9174.11 12959.5 9135.67 12565.9C9106.39 12265.8 9064.29 11967.4 9035 11669C9066.12 11621.4 9091.74 11643.4 9119.2 11674.5C9208.89 11773.4 9313.23 11859.4 9417.56 11941.8C9446.85 11965.6 9476.14 12022.3 9509.08 12004C9547.52 11980.2 9545.69 11919.8 9545.69 11872.2C9543.86 11566.5 9554.84 11260.8 9494.44 10955.2C9423.05 10590.9 9349.84 10230.3 9174.11 9899C9161.3 9875.2 9133.84 9851.41 9159.47 9809.31C9375.46 10036.3 9606.1 10243.1 9811.1 10475.6C9908.12 10585.4 10014.3 10686.1 10118.6 10786.8C10166.2 10832.5 10208.3 10812.4 10221.1 10750.2C10274.2 10499.4 10327.3 10246.8 10380.4 9996.01C10415.1 9831.27 10466.4 9666.53 10486.5 9499.96C10504.8 9342.55 10658.6 9207.1 10568.9 9031.37C10567.1 9027.71 10570.7 9020.39 10572.6 9013.07C10585.4 8888.6 10600 8765.96 10680.6 8661.63C10693.4 8645.15 10697 8615.86 10695.2 8592.07C10689.7 8473.09 10700.7 8355.94 10731.8 8240.62C10770.3 8092.36 10779.4 7934.94 10841.6 7792.17C11010 7874.54 11129 8009.99 11242.5 8152.76C11372.5 8319.33 11462.2 8509.7 11548.2 8700.06C11575.6 8762.3 11610.4 8780.6 11672.7 8778.77C11833.7 8776.94 11994.8 8775.11 12155.9 8778.77C12322.5 8782.43 12487.2 8798.91 12650.1 8833.69C12639.1 8859.31 12619 8866.63 12591.5 8870.3C12432.3 8894.09 12382.9 9027.71 12490.9 9177.81C12540.3 9245.53 12633.6 9285.8 12622.7 9391.97C12622.7 9397.46 12633.6 9406.61 12639.1 9412.1C12703.2 9467.02 12873.4 9470.68 12932 9419.43C13007 9351.7 13014.4 9232.72 12946.6 9141.2C12930.2 9119.23 12888.1 9099.1 12924.7 9067.98C12961.3 9035.03 12979.6 9069.81 13001.6 9099.1C13290.8 9472.51 13406.1 9904.49 13455.5 10358.4ZM12694 10814.2C12606.2 10812.4 12558.6 10850.8 12558.6 10922.2C12558.6 10988.1 12619 11050.3 12684.9 11052.2C12756.3 11054 12794.7 11008.2 12796.5 10927.7C12800.2 10856.3 12776.4 10808.7 12694 10814.2ZM13217.5 9900.83C13272.5 9900.83 13318.2 9871.54 13321.9 9814.8C13323.7 9767.21 13290.8 9734.26 13232.2 9736.09C13173.6 9737.92 13127.9 9750.73 13127.9 9820.29C13124.2 9875.2 13159 9899 13217.5 9900.83ZM12467.1 11076C12463.4 11033.9 12445.1 10999.1 12397.5 11000.9C12349.9 11004.6 12322.5 11039.4 12322.5 11087C12322.5 11132.7 12351.8 11160.2 12397.5 11158.3C12445.1 11156.5 12465.2 11125.4 12467.1 11076Z" fill="#CBD8E3"/>
<path d="M1537.56 15238.4C1572.33 14993.1 1707.79 14810.1 1909.14 14681.9C2075.7 14577.6 2260.58 14517.2 2463.76 14561.1C2538.81 14577.6 2577.24 14533.7 2595.55 14467.8C2630.33 14350.6 2633.99 14229.8 2650.46 14109C2657.78 14048.6 2659.61 13991.9 2685.24 13933.3C2738.32 13807 2696.22 13682.5 2654.12 13561.7C2566.26 13309.1 2608.36 13089.4 2793.24 12891.8C3049.5 12617.2 3371.65 12509.2 3735.91 12518.4C3909.8 12522 4085.52 12556.8 4261.25 12551.3C4623.67 12540.3 4911.05 12375.6 5154.5 12121.1C5214.9 12058.9 5191.11 11993 5150.84 11930.8C5070.3 11808.1 4991.59 11687.3 4923.86 11557.4C4815.87 11350.5 4766.45 11129.1 4759.12 10902.1C4753.63 10706.2 4808.55 10517.7 4918.37 10351.1C4982.44 10252.3 5013.56 10142.4 5028.2 10027.1C5084.94 9573.18 5306.42 9240.04 5745.73 9082.62C6340.62 8868.46 6900.74 8956.33 7429.73 9291.29C7490.14 9329.73 7526.74 9391.97 7588.98 9426.75C7592.64 9439.56 7596.3 9452.37 7599.96 9465.19C7565.18 9664.7 7541.39 9864.22 7534.07 10065.6V10067.4L7532.24 10071.1V10069.2C7490.14 10305.4 7442.54 10541.5 7438.88 10781.3C7391.29 11099.8 7343.7 11416.4 7296.11 11734.9C7237.54 12134 7180.79 12534.8 7118.56 12933.9C7047.17 13389.6 6966.63 13843.6 6909.89 14303C6838.5 14326.8 6765.28 14319.5 6693.9 14323.2C6598.71 14326.8 6591.39 14339.6 6620.68 14434.8C6620.68 14440.3 6622.51 14445.8 6622.51 14453.1C6606.04 14617.9 6598.71 14627 6444.96 14670.9C6230.8 14731.4 6014.8 14793.6 5800.64 14854C5789.66 14683.8 5804.3 14513.5 5784.17 14343.3C5776.85 14271.9 5813.46 14235.3 5890.33 14249.9C5932.43 14257.3 5974.53 14260.9 6016.63 14260.9C6088.02 14260.9 6137.44 14279.2 6122.8 14365.3C6117.31 14396.4 6122.8 14418.3 6163.07 14420.2C6203.34 14422 6217.98 14403.7 6217.98 14367.1C6216.15 14260.9 6217.98 14154.8 6217.98 14046.8C6217.98 14008.3 6197.85 13991.9 6161.24 13991.9C6120.97 13993.7 6122.8 14023 6122.8 14050.4C6122.8 14072.4 6124.63 14092.5 6126.46 14114.5C6139.27 14196.9 6095.34 14215.2 6023.96 14207.8C5978.19 14204.2 5932.43 14195 5886.67 14198.7C5806.13 14204.2 5787.83 14163.9 5789.66 14094.4C5791.49 13905.8 5791.49 13717.3 5789.66 13528.8C5787.83 13320.1 5786 13318.3 5575.5 13338.4C5555.36 13340.2 5527.91 13336.6 5524.25 13364C5520.59 13404.3 5555.36 13389.6 5577.33 13395.1C5624.92 13406.1 5681.66 13373.2 5736.58 13429.9C5641.39 13429.9 5560.86 13428.1 5478.49 13429.9C5454.69 13429.9 5416.25 13411.6 5410.76 13451.9C5405.27 13495.8 5445.54 13486.7 5469.33 13484.8C5518.76 13481.2 5522.42 13508.6 5522.42 13547.1C5520.59 13731.9 5522.42 13918.6 5522.42 14103.5C5522.42 14123.6 5531.57 14151.1 5504.11 14158.4C5434.56 14176.7 5365 14180.4 5299.1 14147.4C5244.19 14120 5267.99 14068.7 5266.16 14024.8C5264.32 14002.8 5266.16 13982.7 5266.16 13960.7C5267.99 13922.3 5242.36 13916.8 5213.07 13916.8C5180.12 13916.8 5172.8 13935.1 5172.8 13964.4C5172.8 14088.9 5172.8 14213.3 5174.63 14339.6C5174.63 14363.4 5181.96 14381.7 5211.24 14381.7C5236.87 14381.7 5260.66 14378.1 5266.16 14347C5269.82 14326.8 5269.82 14304.9 5267.99 14282.9C5262.49 14228 5280.8 14206 5339.37 14213.3C5438.22 14224.3 5538.89 14233.5 5639.56 14235.3C5707.29 14237.1 5729.26 14266.4 5727.43 14330.5C5723.76 14497.1 5723.76 14665.5 5721.93 14832C5687.16 14866.8 5645.06 14888.8 5597.46 14901.6C5258.83 14991.3 4920.2 15079.1 4581.57 15172.5C4517.51 15190.8 4446.12 15192.6 4391.21 15238.4C3437.55 15238.4 2487.55 15238.4 1537.56 15238.4Z" fill="#E0E4EC"/>
<path d="M6620.7 14451.3C6620.7 14445.8 6618.87 14440.3 6618.87 14433C6717.71 14394.6 6822.04 14420.2 6922.72 14414.7C6986.78 14411 7028.88 14394.6 7021.56 14319.5C7078.31 14319.5 7136.88 14319.5 7193.62 14317.7C7244.88 14315.9 7277.82 14332.3 7272.33 14389.1C7266.84 14438.5 7288.81 14453.1 7334.57 14453.1C7437.07 14449.5 7539.58 14447.6 7643.91 14445.8C7709.81 14445.8 7775.7 14445.8 7841.6 14447.6C7914.82 14449.5 7988.03 14449.5 8061.25 14451.3C8105.18 14445.8 8154.6 14425.7 8194.87 14436.7C8326.66 14471.4 8443.81 14436.7 8557.3 14378.1C8564.62 14447.6 8603.06 14476.9 8674.45 14471.4C8738.51 14465.9 8800.75 14469.6 8864.81 14469.6C9097.28 14469.6 9062.5 14495.2 9067.99 14266.4C9071.65 14121.8 9046.02 13975.4 9086.29 13834.4C9146.7 13830.8 9175.99 13805.2 9154.02 13741.1C9161.34 13708.1 9143.04 13678.9 9133.89 13649.6C9135.72 13629.4 9141.21 13607.5 9139.38 13587.3C9111.92 13353 9086.29 13120.6 9055.18 12886.3C9044.19 12803.9 9055.18 12717.9 9007.59 12642.8C9027.72 12611.7 9049.69 12580.6 9013.08 12547.7C8998.43 12287.7 8976.47 12027.8 8938.03 11769.7C8930.71 11753.2 8925.22 11736.8 8917.89 11720.3C8917.89 11694.7 8917.89 11667.2 8917.89 11641.6C8899.59 11434.7 8875.79 11226.1 8866.64 11019.2C8861.15 10925.9 8831.86 10887.4 8740.34 10909.4C8758.65 10900.3 8775.12 10891.1 8793.42 10882C8815.39 10871 8833.69 10858.2 8830.03 10828.9C8824.54 10794.1 8797.09 10803.2 8775.12 10799.6C8744 10719 8659.8 10673.3 8637.84 10583.6C8716.55 10631.2 8758.65 10715.4 8833.69 10801.4C8813.56 10592.7 8797.09 10409.7 8775.12 10228.5C8771.46 10195.5 8733.02 10168.1 8751.32 10126C8791.59 10094.9 8767.8 10050.9 8773.29 10012.5C8762.31 9893.52 8742.17 9774.54 8742.17 9655.56C8742.17 9595.16 8687.26 9547.57 8714.72 9487.16C8733.02 9479.84 8751.32 9470.69 8769.63 9463.37C8808.07 9809.32 8844.68 10155.3 8884.95 10499.4C8930.71 10891.1 8969.15 11284.7 9033.21 11676.4C9064.33 11976.6 9104.6 12273.1 9133.89 12573.3C9172.32 12966.8 9225.41 13358.5 9269.34 13752.1C9276.66 13819.8 9307.78 13839.9 9370.01 13841.8C9589.66 13845.4 9809.32 13852.8 10027.1 13854.6C10105.8 13854.6 10127.8 13883.9 10120.5 13958.9C10107.7 14098 10138.8 14239 10113.2 14378.1C10104 14422 10137 14436.7 10166.3 14453.1C10272.4 14509.9 10384.1 14544.7 10504.9 14548.3C10697.1 14552 10889.3 14552 11079.6 14552C11195 14552 11204.1 14561.1 11196.8 14676.4C11193.1 14742.3 11218.8 14789.9 11281 14811.9C11476.8 14876 11674.5 14938.2 11870.4 15002.3C11905.2 15013.2 11919.8 15005.9 11918 14965.7C11916.1 14773.5 11916.1 14581.3 11918 14390.9C11918 14341.5 11896 14328.7 11850.3 14328.7C11775.2 14328.7 11700.2 14336 11628.8 14293.9C11696.5 14293.9 11762.4 14293.9 11830.1 14293.9C11868.6 14293.9 11912.5 14304.9 11918 14242.6C11921.6 14189.6 11907 14160.3 11846.6 14167.6C11831.9 14169.4 11813.6 14167.6 11810 14149.3C11806.3 14123.7 11828.3 14116.3 11844.8 14118.2C11914.3 14127.3 11918 14083.4 11916.1 14034C11914.3 14002.8 11912.5 13973.6 11916.1 13942.4C11925.3 13867.4 11905.2 13821.6 11813.6 13834.4C11875.9 13788.7 11939.9 13801.5 12037 13812.5C11939.9 13856.4 11958.2 13920.5 11956.4 13979.1C11956.4 14057.8 11956.4 14138.3 11954.6 14217C11952.8 14275.6 11974.7 14301.2 12035.1 14299.4C12086.4 14297.5 12139.5 14297.5 12190.7 14297.5C12236.5 14299.4 12278.6 14297.5 12269.4 14231.7C12265.8 14209.7 12276.7 14196.9 12298.7 14196.9C12318.8 14196.9 12322.5 14213.3 12322.5 14229.8C12324.3 14293.9 12324.3 14358 12324.3 14422C12324.3 14440.3 12320.7 14460.5 12295 14456.8C12274.9 14453.1 12276.7 14434.8 12278.6 14420.2C12295 14339.6 12247.5 14330.5 12183.4 14328.7C11963.7 14326.8 11956.4 14334.2 11956.4 14550.1C11956.4 14669.1 11963.7 14788.1 11954.6 14907.1C11947.3 15007.8 11987.5 15048 12079.1 15071.8C12221.8 15112.1 12362.8 15161.5 12503.7 15210.9C12529.3 15220.1 12558.6 15221.9 12575.1 15245.7C10528.7 15245.7 8480.42 15245.7 6433.99 15245.7C6653.64 14994.9 6891.6 14760.6 7127.73 14526.4C7146.03 14508 7182.64 14491.6 7171.66 14464.1C7158.85 14431.2 7118.58 14444 7089.29 14442.2C6933.7 14422 6778.11 14451.3 6620.7 14451.3Z" fill="#3B3C43"/>
<path d="M6620.66 14451.3C6778.08 14451.3 6933.67 14422 7092.91 14434.8C7122.2 14436.7 7162.47 14423.8 7175.28 14456.8C7186.27 14484.3 7149.66 14500.7 7131.35 14519C6895.23 14753.3 6657.27 14987.6 6437.62 15238.4C6225.29 15238.4 6011.13 15238.4 5798.8 15238.4C5798.8 15110.3 5800.63 14980.3 5800.63 14852.2C6014.79 14791.8 6230.78 14731.4 6444.94 14669.1C6596.87 14625.2 6604.19 14616 6620.66 14451.3Z" fill="#005FA6"/>
<path d="M5797 14852.2C5797 14980.3 5795.16 15110.3 5795.16 15238.4C5771.37 15238.4 5745.74 15238.4 5721.95 15238.4C5721.95 15102.9 5720.12 14967.5 5720.12 14832C5721.95 14665.5 5721.95 14497.1 5725.61 14330.5C5727.44 14264.6 5705.47 14237.1 5637.75 14235.3C5537.07 14233.5 5436.4 14224.3 5337.56 14213.3C5278.98 14206 5260.68 14228 5266.17 14282.9C5268 14303 5268 14325 5264.34 14347C5260.68 14378.1 5236.88 14383.6 5209.43 14381.7C5181.97 14381.7 5174.65 14363.4 5172.82 14339.6C5172.82 14215.2 5172.82 14090.7 5170.99 13964.4C5170.99 13935.1 5180.14 13916.8 5211.26 13916.8C5240.54 13916.8 5266.17 13922.3 5264.34 13960.7C5264.34 13982.7 5262.51 14002.8 5264.34 14024.8C5266.17 14068.7 5242.37 14120 5297.29 14147.4C5363.18 14180.4 5432.74 14176.7 5502.3 14158.4C5527.92 14151.1 5520.6 14123.7 5520.6 14103.5C5520.6 13918.6 5520.6 13731.9 5520.6 13547.1C5520.6 13508.6 5518.77 13481.2 5467.52 13484.8C5443.72 13486.7 5403.45 13497.6 5408.94 13451.9C5414.43 13411.6 5452.87 13429.9 5476.67 13429.9C5557.21 13428.1 5637.75 13429.9 5734.76 13429.9C5679.85 13373.2 5623.1 13404.3 5575.51 13395.1C5553.55 13391.5 5520.6 13404.3 5522.43 13364C5524.26 13336.6 5551.72 13340.2 5573.68 13338.4C5786.01 13318.3 5787.84 13318.3 5787.84 13528.8C5789.67 13717.3 5789.67 13905.8 5787.84 14094.4C5787.84 14163.9 5804.32 14204.2 5884.86 14198.7C5930.62 14195 5976.38 14202.4 6022.14 14207.9C6091.7 14215.2 6137.46 14196.9 6124.64 14114.5C6120.98 14094.4 6120.98 14072.4 6120.98 14050.4C6120.98 14023 6119.15 13993.7 6159.42 13991.9C6196.03 13990 6216.17 14006.5 6216.17 14046.8C6216.17 14152.9 6216.17 14259.1 6216.17 14367.1C6216.17 14405.5 6201.52 14422 6161.25 14420.2C6122.81 14418.4 6115.49 14396.4 6120.98 14365.3C6135.63 14279.2 6088.03 14260.9 6014.82 14260.9C5972.72 14260.9 5928.79 14257.3 5888.52 14250C5811.64 14235.3 5773.2 14271.9 5782.35 14343.3C5800.66 14509.9 5786.01 14681.9 5797 14852.2ZM5575.51 14010.2C5575.51 14034 5571.85 14059.6 5575.51 14083.4C5581 14125.5 5553.55 14184.1 5639.58 14182.2C5716.46 14180.4 5731.1 14142 5729.27 14079.7C5727.44 14028.5 5727.44 13977.2 5729.27 13926C5731.1 13852.7 5681.68 13845.4 5626.76 13839.9C5557.21 13832.6 5581 13887.5 5575.51 13920.5C5571.85 13949.8 5575.51 13980.9 5575.51 14010.2ZM5575.51 13629.4C5575.51 13651.4 5577.34 13671.5 5573.68 13693.5C5564.53 13759.4 5584.66 13792.3 5657.88 13796C5738.42 13799.7 5727.44 13746.6 5729.27 13700.8C5731.1 13655.1 5729.27 13609.3 5729.27 13565.4C5729.27 13492.2 5681.68 13486.7 5624.93 13484.8C5555.38 13483 5577.34 13530.6 5575.51 13565.4C5573.68 13587.3 5575.51 13609.3 5575.51 13629.4Z" fill="#3B3C43"/>
<path d="M5720.1 14832C5720.1 14967.5 5721.93 15102.9 5721.93 15238.4C5277.13 15238.4 4832.34 15238.4 4387.54 15238.4C4442.45 15192.6 4513.84 15190.8 4577.91 15172.5C4916.54 15079.1 5255.17 14991.3 5593.8 14901.6C5643.22 14888.8 5685.32 14868.6 5720.1 14832Z" fill="#005FA6"/>
<path d="M9033.23 11672.7C8969.16 11282.8 8930.72 10889.3 8884.96 10495.7C8844.69 10149.8 8808.08 9803.83 8769.64 9459.7C8769.64 9435.91 8769.64 9413.94 8771.48 9390.15C8787.95 9315.1 8744.02 9243.71 8764.15 9170.5C8819.07 8894.1 8868.49 8617.7 8941.71 8346.8C8991.13 8156.43 9075.33 7980.71 9190.64 7823.29C9315.11 7653.06 9507.31 7579.85 9708.66 7548.73C9928.31 7513.95 10149.8 7523.1 10367.6 7563.37C10545.2 7596.32 10706.2 7675.03 10841.7 7797.67C10777.6 7940.44 10770.3 8096.03 10731.9 8246.13C10700.8 8361.44 10689.8 8478.59 10695.3 8597.57C10695.3 8621.36 10693.4 8650.65 10680.6 8667.13C10601.9 8771.46 10587.3 8894.1 10572.6 9018.57C10572.6 9024.06 10567.1 9031.38 10569 9036.87C10658.7 9212.6 10504.9 9346.22 10486.6 9505.46C10466.5 9672.03 10415.2 9836.77 10380.4 10001.5C10325.5 10252.3 10274.3 10504.9 10221.2 10755.7C10208.4 10817.9 10166.3 10838 10118.7 10792.3C10012.5 10691.6 9906.35 10590.9 9811.16 10481.1C9606.15 10248.6 9373.69 10041.8 9159.53 9814.81C9133.9 9856.91 9161.36 9880.71 9174.17 9904.5C9349.89 10235.8 9423.11 10596.4 9494.5 10960.7C9554.9 11264.5 9543.92 11570.2 9545.75 11877.7C9545.75 11925.3 9545.75 11987.5 9509.14 12009.5C9478.02 12029.6 9446.91 11971.1 9417.62 11947.3C9313.28 11864.9 9210.78 11778.9 9119.26 11680C9089.97 11647.1 9064.34 11625.1 9033.23 11672.7Z" fill="#E0E4EC"/>
<path d="M13455.5 10358.4C13406.1 9904.5 13290.8 9472.51 13003.4 9104.6C12981.4 9077.14 12963.1 9042.36 12926.5 9073.48C12889.9 9106.43 12932 9124.73 12948.5 9146.7C13014.4 9238.22 13008.9 9359.03 12933.9 9424.92C12875.3 9476.17 12705 9470.68 12641 9417.6C12633.7 9412.11 12622.7 9402.96 12624.5 9397.47C12637.3 9291.3 12542.1 9251.03 12492.7 9183.3C12384.7 9033.21 12434.1 8899.59 12593.4 8875.79C12619 8872.13 12641 8864.81 12652 8839.18C12681.3 8833.69 12712.4 8877.62 12734.3 8841.01C12749 8817.22 12719.7 8791.59 12705 8769.63C12662.9 8709.22 12642.8 8637.83 12617.2 8570.11C12589.7 8496.89 12611.7 8462.11 12690.4 8454.79C12805.7 8443.81 12915.5 8469.43 13014.4 8526.18C13320.1 8701.9 13563.5 8938.03 13677 9280.32C13786.8 9611.63 13796 9941.1 13585.5 10245C13548.9 10294.4 13515.9 10343.8 13455.5 10358.4Z" fill="#E0E4EC"/>
<path d="M7435.2 4197.2C7435.2 4178.89 7435.2 4160.59 7435.2 4142.28L7442.52 4144.11L7449.84 4142.28C7477.3 4149.6 7495.6 4169.74 7510.25 4193.53C7464.49 4228.31 7499.26 4266.75 7506.59 4303.36C7499.26 4316.17 7484.62 4328.99 7484.62 4341.8C7482.79 4537.66 7464.49 4733.51 7491.94 4929.37C7495.6 5000.76 7499.26 5072.14 7502.92 5143.53C7484.62 5192.95 7512.08 5218.58 7552.35 5236.88C7631.05 5271.66 7706.1 5315.59 7797.62 5310.1C7799.45 5278.98 7757.36 5273.49 7768.34 5244.2C7803.12 5236.88 7839.72 5229.56 7874.5 5224.07C7918.43 5216.75 7940.4 5196.61 7929.42 5149.02C7931.25 5105.09 7931.25 5062.99 7933.08 5019.06C7936.74 5017.23 7942.23 5015.4 7945.89 5013.57C8002.63 5013.57 8061.21 5015.4 8117.95 5015.4C8185.68 5013.57 8249.74 5044.69 8317.47 5035.54L8315.64 5039.2C8352.25 5050.18 8388.86 5059.33 8425.46 5070.31C8549.93 5073.97 8672.57 5086.79 8789.72 5136.21C8862.94 5167.33 8910.53 5136.21 8905.04 5062.99C8877.58 4775.61 8901.38 4484.57 8861.11 4197.2C8861.11 4173.4 8862.94 4147.77 8862.94 4123.98C8839.14 4087.37 8804.36 4103.84 8775.08 4107.5C8714.67 4113 8667.08 4155.1 8614 4178.89C8593.86 4173.4 8568.24 4186.21 8549.93 4167.91C8551.76 4138.62 8586.54 4140.45 8592.03 4118.49C8632.3 4096.52 8687.22 4103.84 8718.33 4052.59C8623.15 4036.12 8533.46 4019.64 8443.77 4005C8423.63 4001.34 8392.52 3986.7 8390.69 4028.8C8370.55 4036.12 8350.42 4043.44 8328.45 4050.76C8299.16 4054.42 8269.88 4058.08 8279.03 4100.18C8167.37 4091.03 8064.87 4032.46 7951.38 4045.27C7944.06 4039.78 7938.57 4034.29 7931.25 4028.8C7931.25 4021.47 7929.42 4015.98 7929.42 4008.66C7931.25 3933.61 7878.16 3972.05 7854.37 3979.37C7740.88 4010.49 7631.06 4048.93 7519.4 4085.54C7493.77 4087.37 7469.98 4089.2 7444.35 4092.86C7429.71 4045.27 7473.64 4039.78 7495.6 4017.81C7642.04 3968.39 7786.64 3918.97 7933.08 3869.55C8050.23 3907.99 8172.86 3902.5 8293.67 3904.33C8313.81 3928.12 8332.11 3917.14 8352.25 3904.33C8368.72 3911.65 8383.36 3917.14 8399.84 3924.46C8537.12 3950.09 8672.57 3975.71 8808.03 4003.17C8844.63 4010.49 8870.26 4006.83 8868.43 3962.9C8862.94 3684.67 8857.45 3408.28 8850.13 3130.05C8850.13 3111.75 8859.28 3084.29 8824.5 3082.46C8819.01 3075.14 8811.69 3069.65 8806.19 3062.33C8817.18 3029.38 8828.16 2996.43 8839.14 2963.48C8839.14 2956.16 8839.14 2947.01 8839.14 2939.69C8831.82 2943.35 8826.33 2945.18 8819.01 2948.84C8687.22 2972.63 8588.37 3098.93 8440.11 3067.82C8432.79 3065.99 8419.97 3071.48 8416.31 3076.97C8379.7 3131.88 8337.6 3106.26 8297.33 3086.12C8293.67 3031.21 8354.08 3058.66 8370.55 3029.38C8403.5 3023.89 8441.94 3027.55 8467.56 2992.77C8434.62 2950.67 8370.55 2948.84 8348.59 2884.77C8473.06 2901.25 8586.54 3031.21 8720.16 2903.08C8586.54 2875.62 8460.24 2848.16 8333.94 2822.54C8251.57 2774.95 8152.73 2784.1 8066.7 2743.83C8026.43 2723.69 8011.79 2745.66 8002.63 2789.59C7986.16 2877.45 7984.33 2968.97 7931.25 3045.85C7923.92 3051.34 7916.6 3056.83 7911.11 3062.33C7892.81 3062.33 7876.33 3064.16 7858.03 3064.16C7733.56 3025.72 7598.11 3018.39 7490.11 2936.02C7497.43 2930.53 7504.76 2923.21 7512.08 2917.72C7521.23 2919.55 7530.38 2921.38 7537.7 2923.21C7634.72 2945.18 7731.73 2968.97 7828.74 2989.11C7859.86 2994.6 7892.81 2992.77 7896.47 2950.67C7901.96 2904.91 7865.35 2917.72 7841.56 2912.23C7819.59 2908.57 7792.13 2914.06 7775.66 2888.43C7830.57 2870.13 7901.96 2882.94 7929.42 2811.56C7936.74 2765.79 7956.87 2718.2 7912.94 2677.93C7929.42 2670.61 7947.72 2661.46 7964.19 2654.14C8075.85 2655.97 8187.51 2659.63 8299.16 2661.46C8432.79 2749.32 8586.54 2771.29 8736.64 2806.06C8762.26 2817.05 8786.06 2835.35 8811.69 2804.23C8879.41 2837.18 8890.4 2897.59 8892.23 2965.31C8901.38 3338.72 8906.87 3713.96 8921.51 4087.37C8934.33 4451.63 8928.83 4817.71 8958.12 5181.97C8959.95 5200.27 8961.78 5220.41 8963.61 5238.71C8937.99 5238.71 8908.7 5231.39 8899.55 5268C8815.35 5313.76 8734.81 5365.01 8646.95 5405.28C8559.09 5445.55 8513.33 5502.3 8531.63 5601.14C8452.92 5615.78 8496.85 5537.07 8465.73 5515.11C8429.12 5427.25 8405.33 5533.41 8372.38 5520.6C8357.74 5515.11 8341.26 5509.62 8335.77 5491.31C8379.7 5441.89 8454.75 5416.27 8456.58 5333.9C8471.22 5306.44 8489.53 5269.83 8434.62 5275.32C8359.57 5282.64 8293.67 5258.85 8224.12 5236.88C8138.09 5209.43 8052.06 5220.41 7966.02 5246.04C7918.43 5260.68 7896.47 5284.47 7905.62 5339.39C7912.94 5385.15 7931.25 5432.74 7898.3 5478.5C7872.67 5471.18 7845.22 5465.69 7819.59 5458.37C7718.92 5408.94 7618.24 5357.69 7506.59 5302.78C7508.42 5379.66 7524.89 5436.4 7543.19 5493.14C7532.21 5520.6 7521.23 5549.89 7510.25 5577.34C7508.42 5584.67 7506.59 5593.82 7504.75 5601.14C7504.75 5604.8 7504.76 5608.46 7502.92 5610.29C7501.09 5612.12 7493.77 5612.12 7493.77 5610.29C7469.98 5489.48 7480.96 5365.01 7446.18 5247.87C7444.35 5233.22 7442.52 5216.75 7438.86 5202.11C7457.16 5178.31 7455.33 5150.85 7455.33 5123.4C7448.01 4887.27 7442.52 4651.14 7435.2 4416.85C7444.35 4343.63 7449.84 4270.41 7435.2 4197.2ZM8806.19 5244.2C8709.18 5258.85 8604.85 5260.68 8522.48 5366.84C8645.12 5352.2 8727.49 5302.78 8806.19 5244.2ZM8546.27 5196.61C8416.31 5169.16 8379.7 5172.82 8324.79 5213.09C8405.33 5231.39 8491.36 5224.07 8546.27 5196.61Z" fill="#004B85"/>
<path d="M8762.31 9170.49C8742.17 9245.54 8786.1 9316.93 8769.63 9390.14C8745.83 9382.82 8722.04 9373.67 8698.24 9366.35C8698.24 9360.86 8698.24 9355.36 8696.41 9349.87C8714.72 9181.47 8674.45 9016.73 8663.47 8850.16C8657.97 8773.29 8623.2 8765.96 8564.62 8786.1C8526.18 8798.91 8493.24 8831.86 8445.64 8811.73C8421.85 8800.74 8392.56 8764.13 8368.77 8804.4C8348.63 8841.01 8392.56 8853.83 8407.2 8877.62C8350.46 8868.47 8337.65 8895.93 8333.99 8947.18C8324.83 9062.5 8366.93 9179.64 8333.99 9294.96C8200.37 9265.67 8064.91 9309.6 7931.29 9293.13C7947.76 9223.57 7936.78 9155.85 7916.65 9086.29C7905.66 9049.68 7889.19 9016.73 7936.78 8976.47C7975.22 8941.69 7945.93 8866.64 7953.26 8809.9C7958.75 8760.47 7916.65 8775.12 7894.68 8762.3C7859.9 8742.17 7887.36 8712.88 7903.83 8707.39C7980.71 8685.43 7971.56 8625.02 7969.73 8568.28C7967.9 8471.27 7967.9 8374.25 7966.07 8275.41C7982.54 8235.14 7947.76 8211.34 7934.95 8180.23C8024.64 8182.06 8114.33 8183.89 8204.03 8183.89C8319.34 8183.89 8319.34 8183.89 8315.68 8066.74C8319.34 7999.01 8321.17 7931.29 8324.83 7863.56C8343.14 7911.15 8332.16 7960.57 8335.82 8008.16C8337.65 8033.79 8337.65 8059.42 8368.77 8064.91C8421.85 8074.06 8476.76 8081.38 8529.84 8086.87C8573.77 8090.53 8599.4 8072.23 8593.91 8022.81C8582.93 7920.3 8571.94 7817.8 8560.96 7715.29C8557.3 7686.01 8555.47 7653.06 8517.03 7643.91C8557.3 7634.76 8592.08 7618.28 8610.38 7578.01C8659.8 7726.28 8646.99 7883.69 8663.47 8035.62C8700.07 8414.52 8729.36 8793.42 8762.31 9170.49ZM8333.99 8474.93C8335.82 8668.95 8335.82 8668.95 8533.5 8672.61C8551.81 8672.61 8570.11 8672.61 8588.42 8676.27C8626.86 8681.76 8645.16 8668.95 8643.33 8628.68C8636.01 8511.53 8630.52 8392.56 8621.37 8275.41C8619.53 8244.29 8610.38 8215 8571.94 8211.34C8429.17 8193.04 8335.82 8277.24 8335.82 8421.84C8333.99 8438.32 8333.99 8456.62 8333.99 8474.93Z" fill="#0085EB"/>
<path d="M7934.92 8182.05C7947.74 8213.17 7982.52 8236.97 7966.04 8277.24C7909.3 8266.25 7854.38 8255.27 7797.64 8240.63C7757.37 8231.48 7733.58 8236.97 7731.75 8286.39C7728.08 8368.76 7720.76 8449.3 7713.44 8529.84C7695.14 8765.96 7676.83 9000.26 7654.87 9236.39C7645.71 9329.74 7693.31 9371.84 7783 9337.06C7814.11 9324.25 7845.23 9309.6 7880.01 9318.76C7876.35 9366.35 7839.74 9410.28 7861.71 9461.53C7783 9490.82 7702.46 9472.51 7623.75 9465.19C7614.6 9465.19 7605.44 9465.19 7596.29 9465.19C7592.63 9452.38 7588.97 9439.56 7585.31 9426.75C7605.45 9188.79 7623.75 8950.84 7643.88 8711.05C7660.36 8498.72 7678.66 8288.22 7695.14 8075.89C7702.46 7975.21 7707.95 7876.37 7715.27 7775.7C7720.76 7711.63 7707.95 7691.5 7640.22 7728.11C7213.73 7960.57 6785.41 8189.38 6357.09 8418.18C6313.16 8441.98 6271.06 8476.75 6216.14 8476.75L6212.48 8473.09C6331.46 8370.59 6474.24 8310.18 6607.86 8235.14C6959.3 8037.45 7312.58 7843.42 7667.68 7651.23C7766.52 7598.14 7751.88 7506.62 7764.69 7424.25C7777.51 7341.88 7742.73 7255.85 7788.49 7177.14C7799.47 7178.97 7810.45 7180.81 7821.44 7182.64C7815.95 7279.65 7806.79 7376.66 7804.96 7471.84C7801.3 7583.5 7810.45 7588.99 7916.62 7563.37C7925.77 7561.54 7934.92 7561.54 7944.08 7559.71C7945.91 7579.84 7947.74 7598.14 7949.57 7618.28C7949.57 7636.58 7947.74 7654.89 7947.74 7671.36C7929.43 7671.36 7911.13 7669.53 7892.82 7669.53C7770.18 7669.53 7772.01 7671.36 7764.69 7795.83C7757.37 7891.01 7786.66 7980.71 7784.83 8074.06C7783 8114.33 7806.79 8134.46 7850.72 8116.16C7876.35 8105.18 7901.98 8097.85 7927.6 8088.7C7931.26 8119.82 7933.09 8150.94 7934.92 8182.05Z" fill="#33A7FF"/>
<path d="M8301.04 2663.29C8189.38 2661.46 8077.73 2657.8 7966.07 2655.97C7967.9 2602.89 7966.07 2547.97 7969.73 2494.89C7971.56 2454.62 7951.43 2441.81 7914.82 2445.47L7912.99 2443.64C7942.27 2403.37 7995.36 2370.42 7949.6 2310.02C7947.77 2289.88 7949.6 2264.26 7922.14 2258.77C7777.54 2227.65 7636.59 2167.24 7484.67 2176.4C7482.84 2009.83 7481 1843.26 7479.17 1676.69C7486.5 1676.69 7495.65 1676.69 7502.97 1676.69C7535.92 1792 7526.77 1910.98 7528.6 2028.13C7530.43 2094.03 7559.71 2090.37 7601.81 2061.08L7603.64 2062.91C7632.93 2097.69 7664.05 2072.06 7695.17 2064.74C7786.69 2044.6 7869.06 1991.52 7964.24 1987.86C7966.07 2057.42 7967.9 2125.14 7967.9 2194.7C7966.07 2225.82 7955.09 2258.77 7980.71 2284.39C7984.37 2311.85 7973.39 2342.97 8008.17 2359.44C8103.35 2396.05 8204.03 2361.27 8299.21 2379.57C8290.06 2472.93 8344.97 2568.11 8301.04 2663.29Z" fill="#33A7FF"/>
<path d="M8266.24 757.802C8423.65 790.75 8581.07 821.868 8740.32 852.985C8804.38 865.798 8837.33 895.085 8833.67 970.133C8826.35 1125.72 8830.01 1281.31 8828.18 1435.06C8822.69 1436.89 8819.03 1436.89 8813.54 1436.89C8798.89 1435.06 8784.25 1433.23 8776.93 1418.59C8839.16 1299.61 8789.74 1175.14 8793.4 1054.33C8795.23 968.303 8749.47 939.016 8667.1 968.303C8568.26 1003.08 8484.06 1059.82 8421.82 1145.85C8399.86 1176.97 8385.21 1217.24 8337.62 1217.24C8337.62 1206.26 8337.62 1193.45 8339.45 1182.46C8390.7 1129.38 8443.79 1078.13 8484.06 1015.89C8487.72 1012.23 8491.38 1008.57 8495.04 1004.91C8493.21 1004.91 8489.55 1004.91 8487.72 1003.08C8487.72 1006.74 8487.72 1012.23 8485.89 1015.89C8429.14 999.42 8377.89 1030.54 8322.98 1037.86C8299.18 1036.03 8273.56 1034.2 8249.76 1032.37C8183.87 979.285 8121.63 975.624 8066.72 1047.01C8013.63 1059.82 7993.5 1048.84 7989.84 986.607C7986.18 917.05 8022.79 842.002 7973.37 776.107C7986.18 763.294 7998.99 752.311 8011.8 739.498C8042.92 739.498 8072.21 739.498 8103.33 739.498C8154.58 748.65 8209.49 768.785 8266.24 757.802ZM8546.29 926.203C8467.58 884.103 8401.69 882.272 8337.62 871.29C8319.32 867.629 8301.01 874.95 8299.18 896.916C8297.35 922.542 8315.66 924.372 8335.79 924.372C8398.03 926.203 8460.26 926.203 8546.29 926.203Z" fill="#005FA6"/>
<path d="M8337.63 1184.3C8337.63 1195.28 8337.63 1208.09 8335.8 1219.08C8295.53 1242.87 8306.51 1273.99 8319.33 1306.94C8207.67 1299.62 8097.84 1294.12 7986.19 1286.8C7986.19 1220.91 7986.19 1155.01 7988.02 1089.12C7977.04 1070.81 7966.05 1050.68 7955.07 1032.37C7817.79 1014.07 7682.34 993.932 7545.05 977.458C7497.46 971.967 7491.97 1004.91 7493.8 1041.52C7501.12 1162.33 7508.44 1283.14 7513.93 1403.95C7513.93 1438.73 7486.48 1435.07 7464.51 1436.9C7462.68 1292.29 7460.85 1145.86 7459.02 1001.25C7459.02 968.306 7453.53 929.867 7493.8 917.054C7651.22 867.632 7797.65 783.432 7967.88 776.11C8017.3 842.006 7982.53 917.054 7984.36 986.611C7988.02 1047.01 8008.15 1059.83 8061.24 1047.01C8123.47 1050.68 8185.71 1068.98 8244.28 1032.37C8268.07 1034.2 8293.7 1036.03 8317.5 1037.86C8321.16 1089.12 8295.53 1140.37 8337.63 1184.3ZM7660.37 962.815C7746.4 962.815 7832.43 962.815 7918.46 962.815C7936.77 962.815 7958.73 957.324 7958.73 935.358C7958.73 913.393 7938.6 906.071 7920.29 907.902C7830.6 911.563 7742.74 920.715 7660.37 962.815Z" fill="#33A7FF"/>
<path d="M8901.4 5271.66C8910.55 5235.05 8939.84 5242.38 8965.46 5242.38C8970.95 5249.7 8974.61 5255.19 8980.11 5262.51C8983.77 5447.39 8989.26 5632.26 8989.26 5818.96C8989.26 5908.66 9031.36 5947.09 9119.22 5937.94C9137.52 5936.11 9155.83 5934.28 9174.13 5936.11C9265.65 5948.93 9305.92 5914.15 9285.79 5818.96C9280.3 5795.17 9267.48 5758.56 9304.09 5749.41C9342.53 5738.42 9379.14 5743.92 9379.14 5798.83C9379.14 5901.33 9379.14 6005.67 9379.14 6108.17C9379.14 6141.12 9369.99 6163.09 9333.38 6159.43C9298.6 6157.59 9291.28 6133.8 9291.28 6102.68C9289.45 5987.36 9287.62 5987.36 9166.81 5991.03C8989.26 5994.69 8991.09 5994.69 8992.92 6174.07C8994.75 6283.9 8994.75 6391.89 8996.58 6501.72C8996.58 6531 9005.73 6565.78 8961.8 6574.93C8954.48 6551.14 8963.63 6523.68 8943.5 6503.55C8941.67 6360.77 8939.84 6218 8936.18 6075.23C8936.18 6036.79 8941.67 5989.19 8881.26 5991.03C8771.44 5992.86 8663.44 5987.36 8555.45 5974.55C8555.45 5961.74 8555.45 5947.09 8555.45 5934.28C8709.2 5936.11 8709.2 5936.11 8762.28 5787.85C8806.21 5665.21 8848.31 5544.4 8890.41 5421.76C8906.89 5372.34 8923.36 5322.92 8901.4 5271.66ZM8736.66 5930.62C8769.61 5932.45 8797.06 5930.62 8822.69 5934.28C8914.21 5948.93 8943.5 5908.66 8936.18 5822.62C8930.68 5751.24 8936.18 5678.02 8932.51 5604.8C8930.68 5562.7 8947.16 5518.77 8912.38 5465.69C8851.98 5626.77 8795.23 5775.03 8736.66 5930.62Z" fill="#3B3C43"/>
<path d="M8610.38 7579.84C8592.08 7620.11 8557.3 7636.58 8517.03 7645.73C8458.46 7649.4 8399.88 7651.23 8341.31 7654.89C8339.48 7649.4 8339.48 7645.74 8337.65 7640.24C8337.65 7614.62 8337.65 7588.99 8339.48 7565.2C8341.31 7561.53 8341.31 7557.87 8341.31 7554.21C8387.07 7559.7 8431 7568.86 8476.76 7568.86C8557.3 7570.69 8582.93 7532.25 8566.45 7453.54C8557.3 7405.95 8551.81 7358.36 8546.32 7308.93C8535.34 7186.3 8526.18 7177.14 8403.54 7171.65C8381.58 7169.82 8361.44 7169.82 8339.48 7169.82C8339.48 7166.16 8337.65 7160.67 8335.82 7157.01C8383.41 7129.55 8421.85 7094.77 8429.17 7034.37C8465.78 7030.71 8480.42 7010.57 8458.46 6981.29C8420.02 6930.03 8398.05 6864.14 8339.48 6829.36C8337.65 6768.96 8297.38 6708.55 8337.65 6648.15C8374.26 6748.82 8420.02 6845.83 8504.22 6944.68C8504.22 6878.78 8504.22 6833.02 8504.22 6789.09C8502.39 6626.18 8502.39 6626.18 8341.31 6629.84C8328.5 6552.96 8365.11 6527.34 8436.49 6538.32C8487.75 6545.64 8531.68 6536.49 8555.47 6485.24C8553.64 6514.53 8573.78 6527.34 8595.74 6538.32C8592.08 6578.59 8632.35 6571.27 8650.65 6585.91C8592.08 6584.08 8577.44 6613.37 8579.27 6670.11C8586.59 6944.68 8606.72 7219.24 8599.4 7493.81C8592.08 7521.27 8603.06 7550.55 8610.38 7579.84Z" fill="#004B85"/>
<path d="M7493.8 6428.5C7457.19 6369.92 7493.8 6302.2 7464.51 6225.32C6757.96 6836.69 6056.91 7446.22 5355.85 8053.93C5348.53 8044.77 5341.21 8037.45 5333.88 8028.3C6053.25 7391.31 6772.61 6752.49 7491.97 6115.49C7502.95 6219.83 7502.95 6324.16 7493.8 6428.5Z" fill="#B6C3D2"/>
<path d="M8978.25 5262.51C8972.76 5255.19 8969.1 5247.87 8963.61 5242.38C8961.78 5224.07 8959.95 5203.94 8958.12 5185.63C9128.35 5278.99 9283.94 5396.13 9445.01 5505.96C10065.5 5934.28 10684.2 6360.77 11304.7 6789.1C11330.4 6805.57 11357.8 6820.21 11368.8 6849.5C11302.9 6849.5 11257.1 6803.74 11209.6 6770.79C10499.3 6289.39 9789.14 5806.15 9078.93 5322.92C9047.81 5299.12 9013.03 5282.65 8978.25 5262.51Z" fill="#33A7FF"/>
<path d="M7442.51 5203.94C7444.34 5218.58 7446.17 5235.05 7449.84 5249.7C6953.79 5784.19 6439.43 6300.37 5930.57 6822.04C5795.12 6961.16 5657.84 7098.44 5524.22 7239.38C5509.57 7254.03 5494.93 7270.5 5471.13 7272.33C5469.3 7270.5 5465.64 7266.84 5463.81 7265.01C5467.47 7239.38 5487.61 7222.91 5504.08 7204.6C5712.75 6988.61 5925.08 6772.62 6131.92 6554.8C6474.21 6196.03 6814.67 5835.44 7155.14 5474.84C7224.69 5401.62 7290.59 5326.58 7360.14 5253.36C7382.11 5231.39 7404.07 5203.94 7442.51 5203.94Z" fill="#B6C3D2"/>
<path d="M7493.79 6428.5C7502.94 6324.17 7501.11 6219.83 7491.96 6115.5C7519.41 6007.5 7506.6 5991.03 7398.6 5991.03C7343.69 5991.03 7288.78 5992.86 7235.7 5989.2C7166.14 5985.54 7131.36 6005.67 7144.17 6082.55C7149.66 6113.67 7162.48 6163.09 7103.9 6164.92C7050.82 6164.92 7056.31 6120.99 7056.31 6084.38C7056.31 5983.71 7056.31 5884.86 7054.48 5784.19C7054.48 5753.07 7058.14 5729.27 7098.41 5731.11C7131.36 5732.94 7144.17 5747.58 7149.66 5780.53C7158.82 5829.95 7113.06 5901.34 7178.95 5928.79C7222.88 5947.1 7279.63 5936.11 7330.88 5936.11C7497.45 5936.11 7497.45 5936.11 7495.62 5767.71C7495.62 5712.8 7501.11 5659.72 7502.94 5604.81C7504.77 5597.48 7506.6 5588.33 7510.26 5581.01C7534.06 5661.55 7519.41 5747.58 7532.23 5829.95C7543.21 5901.34 7563.34 5963.57 7658.53 5932.45C7669.51 5930.62 7682.32 5930.62 7693.3 5928.79C7700.63 5926.96 7707.95 5923.3 7715.27 5921.47C7753.71 5925.13 7786.66 5912.32 7821.44 5897.67C7823.27 5903.17 7825.1 5906.83 7826.93 5912.32C7819.6 5932.45 7812.28 5954.42 7804.96 5974.55C7792.15 5981.88 7781.17 5989.2 7768.35 5996.52C7728.08 5994.69 7689.64 5996.52 7651.2 5992.86C7568.83 5981.88 7532.23 6009.33 7554.19 6095.36C7550.53 6146.61 7545.04 6196.04 7545.04 6247.29C7545.04 6349.79 7546.87 6452.3 7548.7 6552.97C7535.89 6563.95 7523.07 6573.11 7512.09 6584.09C7486.47 6534.67 7510.26 6477.92 7493.79 6428.5Z" fill="#3B3C43"/>
<path d="M8266.23 757.806C8209.48 768.789 8154.57 748.654 8099.66 743.163C8103.32 400.871 8088.67 60.4098 8117.96 -281.882C8161.89 -256.256 8167.38 -210.495 8169.21 -170.225C8183.86 140.949 8240.6 446.632 8266.23 757.806Z" fill="#33A7FF"/>
<path d="M8116.15 -281.882C8086.87 58.5787 8101.51 400.87 8097.85 743.162C8066.73 743.162 8037.45 743.162 8006.33 743.162C8031.95 426.496 8020.97 109.831 8024.63 -208.665C8026.46 -261.748 8039.28 -314.83 8116.15 -281.882Z" fill="#DBDCE1"/>
<path d="M7513.96 6582.25C7526.77 6571.27 7539.58 6562.12 7550.56 6551.13C7821.47 6552.96 7828.79 6547.47 7843.43 6280.23C7845.26 6261.93 7845.26 6243.62 7847.09 6225.32C7856.25 6230.81 7867.23 6236.3 7876.38 6243.62C7869.06 6305.86 7854.42 6366.26 7867.23 6428.49C7878.21 6485.24 7902.01 6523.68 7967.9 6514.53C7966.07 6560.29 7894.69 6540.15 7896.52 6589.57C7832.45 6679.26 7872.72 6785.43 7847.09 6880.61C7880.04 6834.85 7874.55 6776.28 7909.33 6732.35C7916.65 6739.67 7922.14 6746.99 7929.46 6754.31C7900.18 6820.21 7902.01 6895.26 7859.91 6955.66C7836.11 6962.98 7795.84 6909.9 7786.69 6973.96C7684.19 6853.16 7592.66 6723.2 7513.96 6582.25ZM7781.2 6917.22C7810.49 6878.78 7806.83 6844 7812.32 6811.06C7848.93 6633.5 7792.18 6571.27 7612.8 6589.57C7565.21 6593.23 7561.55 6609.71 7587.17 6644.49C7649.41 6734.18 7711.64 6822.04 7781.2 6917.22Z" fill="#005FA6"/>
<path d="M7499.29 4019.65C7477.32 4041.61 7431.56 4048.93 7448.03 4094.69C7448.03 4109.34 7449.86 4125.81 7449.86 4140.46L7442.54 4142.29L7435.22 4140.46C7431.56 4125.81 7424.24 4113 7422.41 4098.36C7415.09 3717.63 7409.6 3336.89 7404.1 2957.99C7404.1 2937.86 7400.44 2914.06 7420.58 2899.42C7433.39 2912.23 7446.2 2923.22 7457.19 2936.03C7444.37 3292.96 7468.17 3649.9 7473.66 4008.66C7475.49 4012.32 7490.13 4015.99 7499.29 4019.65Z" fill="#33A7FF"/>
<path d="M7459.05 2936.02C7446.23 2923.21 7433.42 2912.23 7422.44 2899.41C7481.01 2839.01 7501.15 2769.45 7495.65 2685.25C7486.5 2546.14 7490.16 2405.2 7488.33 2266.08C7495.66 2264.25 7502.98 2264.25 7512.13 2262.42C7512.13 2447.29 7512.13 2634 7512.13 2826.2C7656.73 2773.11 7786.69 2727.35 7918.49 2679.76C7960.59 2720.03 7940.45 2767.62 7934.96 2813.38C7794.02 2807.89 7664.06 2864.63 7526.77 2888.43C7512.13 2890.26 7515.79 2908.57 7517.62 2919.55C7510.3 2925.04 7502.98 2932.36 7495.65 2937.85C7481.01 2937.85 7470.03 2936.02 7459.05 2936.02Z" fill="#005FA6"/>
<path d="M7464.54 1440.56C7486.5 1438.73 7513.96 1442.39 7513.96 1407.61C7532.26 1405.78 7550.57 1405.78 7568.87 1403.95C7704.33 1402.12 7839.78 1383.82 7973.4 1365.51L7982.55 1363.68L7991.7 1365.51C7971.57 1413.1 8028.31 1486.32 7949.6 1513.78C7885.54 1537.57 7817.81 1546.72 7751.92 1511.95C7808.66 1475.34 7878.22 1515.61 7949.6 1479C7841.61 1446.05 7748.26 1429.58 7649.41 1455.2C7629.28 1460.69 7627.45 1471.68 7627.45 1488.15C7603.65 1497.3 7574.37 1482.66 7554.23 1504.62C7519.45 1499.13 7495.66 1508.29 7499.32 1550.39C7501.15 1590.65 7504.81 1632.75 7506.64 1673.02C7499.32 1673.02 7490.17 1673.02 7482.84 1673.02C7475.52 1596.15 7470.03 1517.44 7464.54 1440.56Z" fill="#0085EB"/>
<path d="M7786.64 6975.8C7795.79 6911.74 7836.06 6962.99 7859.85 6957.5C7852.53 7019.73 7887.31 7025.22 7929.41 7003.26C7947.71 6992.27 7955.04 6959.33 7967.85 6937.36C7967.85 7012.41 7967.85 7087.46 7967.85 7164.34C7920.26 7169.83 7872.67 7177.15 7825.08 7182.64C7814.09 7180.81 7803.11 7178.98 7792.13 7177.15C7790.3 7109.42 7788.47 7043.53 7786.64 6975.8Z" fill="#004B85"/>
<path d="M7486.5 2174.56C7640.25 2165.41 7779.37 2225.82 7923.97 2256.93C7949.6 2262.42 7947.77 2288.05 7951.43 2308.18C7801.33 2291.71 7662.22 2223.99 7512.12 2205.68C7502.97 2203.85 7495.65 2202.02 7486.5 2200.19C7486.5 2191.04 7486.5 2181.89 7486.5 2174.56Z" fill="#005FA6"/>
<path d="M8645.11 6585.91C8626.81 6569.44 8586.54 6578.59 8590.2 6538.32C8679.89 6538.32 8769.58 6538.32 8859.27 6538.32C8892.22 6538.32 8927 6545.64 8941.64 6503.54C8963.61 6523.68 8952.63 6551.13 8959.95 6574.93C8939.81 6600.56 8921.51 6624.35 8901.37 6649.98C8894.05 6642.66 8886.73 6635.33 8881.24 6629.84C8897.71 6582.25 8861.11 6589.57 8835.48 6589.57C8773.24 6585.91 8709.18 6585.91 8645.11 6585.91Z" fill="#005FA6"/>
<path d="M8813.53 2807.9C8789.73 2839.01 8764.11 2820.71 8738.48 2809.73C8747.63 2773.12 8806.21 2787.76 8800.72 2725.53C8787.9 2558.96 8795.22 2392.39 8795.22 2225.82H8802.55H8809.87C8813.53 2227.65 8817.19 2229.48 8822.68 2231.31C8837.32 2421.67 8840.99 2615.7 8813.53 2807.9Z" fill="#005FA6"/>
<path d="M5041.02 7700.65C5125.22 7585.33 5236.88 7495.64 5332.06 7389.47C5229.56 7486.49 5127.05 7583.5 5024.55 7680.51C5030.04 7687.83 5035.53 7693.33 5041.02 7700.65Z" fill="#B6C3D2"/>
<path d="M8881.24 6628.01C8888.56 6635.33 8895.88 6642.66 8901.38 6648.15C8844.63 6737.84 8769.58 6811.06 8690.88 6882.44C8736.64 6785.43 8806.19 6704.89 8881.24 6628.01Z" fill="#0085EB"/>
<path d="M11716.6 7087.46C11601.3 7054.51 11520.8 6968.48 11429.3 6897.09C11537.3 6941.02 11636.1 7001.43 11716.6 7087.46Z" fill="#33A7FF"/>
<path d="M12027.8 7305.28C11930.8 7270.5 11853.9 7204.6 11780.7 7135.04C11870.4 7178.98 11967.4 7217.41 12027.8 7305.28Z" fill="#33A7FF"/>
<path d="M6179.57 8493.23C6106.35 8577.43 5998.35 8601.23 5906.83 8650.65C5991.03 8588.42 6071.57 8517.03 6179.57 8493.23Z" fill="#33A7FF"/>
<path d="M8815.37 1510.12C8815.37 1705.97 8815.37 1900 8815.37 2095.86H8808.05C8802.56 2095.86 8797.07 2094.03 8793.41 2092.2C8793.41 1898.17 8793.41 1704.14 8793.41 1510.12C8798.9 1508.29 8804.39 1506.46 8809.88 1506.46L8815.37 1510.12Z" fill="#005FA6"/>
<path d="M5008.06 7803.16C4942.16 7863.56 4874.44 7922.13 4808.54 7982.54C4841.49 7887.36 4918.37 7837.93 4989.76 7784.85C4995.25 7790.34 5002.57 7795.83 5008.06 7803.16Z" fill="#B6C3D2"/>
<path d="M4554.1 8238.81C4535.79 8299.21 4490.03 8332.16 4416.81 8374.26C4457.08 8301.04 4491.86 8257.11 4552.26 8236.98L4554.1 8238.81Z" fill="#CBD8E3"/>
<path d="M7435.21 4197.2C7449.86 4270.41 7444.37 4343.63 7437.04 4418.68C7413.25 4343.63 7415.08 4270.41 7435.21 4197.2Z" fill="#33A7FF"/>
<path d="M8819.05 2229.48C8815.38 2227.65 8809.89 2225.82 8806.23 2223.99C8806.23 2181.89 8806.23 2139.79 8806.23 2095.86H8813.55C8835.52 2139.79 8831.86 2183.72 8819.05 2229.48Z" fill="#33A7FF"/>
<path d="M7486.49 2200.19C7495.64 2202.02 7502.96 2203.86 7512.11 2205.69C7510.28 2223.99 7510.28 2244.12 7508.45 2262.43C7501.13 2264.26 7493.81 2264.26 7484.66 2266.09C7475.5 2244.12 7475.5 2222.16 7486.49 2200.19Z" fill="#33A7FF"/>
<path d="M11370.6 6847.66C11381.6 6854.98 11399.9 6853.15 11401.8 6871.46C11401.8 6873.29 11398.1 6876.95 11396.3 6876.95C11378 6875.12 11376.1 6860.48 11370.6 6847.66Z" fill="#33A7FF"/>
<path d="M8811.71 1438.73C8817.2 1438.73 8820.86 1438.73 8826.35 1436.9C8826.35 1462.53 8830.01 1488.15 8815.37 1511.95L8808.04 1508.29C8809.88 1484.49 8809.88 1460.7 8811.71 1438.73Z" fill="#33A7FF"/>
<path d="M4735.3 8031.96C4733.47 8026.47 4729.81 8020.98 4731.64 8017.32C4733.47 8013.66 4740.79 8011.83 4746.28 8008.17C4748.11 8013.66 4751.77 8019.15 4749.94 8022.81C4746.28 8028.3 4738.96 8030.13 4735.3 8031.96Z" fill="#B6C3D2"/>
<path d="M12027.8 7305.28C12044.3 7303.44 12057.1 7308.94 12064.4 7323.58C12049.8 7321.75 12035.1 7319.92 12027.8 7305.28Z" fill="#33A7FF"/>
<path d="M6217.95 8476.75C6208.8 8495.06 6194.16 8491.4 6179.51 8491.4C6186.83 8476.75 6199.65 8471.26 6214.29 8471.26C6214.29 8473.09 6217.95 8476.75 6217.95 8476.75Z" fill="#33A7FF"/>
<path d="M11718.4 7085.63C11723.9 7091.12 11729.4 7098.44 11734.9 7103.93C11725.7 7103.93 11718.4 7098.44 11718.4 7085.63Z" fill="#33A7FF"/>
<path d="M11734.9 7103.93C11738.6 7105.76 11742.2 7109.42 11744.1 7111.26C11742.2 7111.26 11738.6 7111.26 11738.6 7109.43C11738.6 7109.43 11736.7 7105.76 11734.9 7103.93Z" fill="#33A7FF"/>
<path d="M12064.4 7323.58C12068.1 7325.41 12069.9 7329.07 12073.5 7330.9C12071.7 7330.9 12069.9 7330.9 12068.1 7329.07C12066.2 7327.24 12066.2 7325.41 12064.4 7323.58Z" fill="#33A7FF"/>
<path d="M4623.69 8163.75C4627.35 8161.92 4631.01 8158.26 4632.84 8156.43C4631.01 8160.09 4627.35 8163.75 4625.52 8165.58C4627.35 8165.58 4623.69 8163.75 4623.69 8163.75Z" fill="#CBD8E3"/>
<path d="M4605.36 8182.06C4610.85 8176.57 4618.17 8169.25 4623.66 8163.75L4625.49 8165.58C4620 8171.08 4612.68 8178.4 4607.19 8183.89C4609.02 8183.89 4605.36 8182.06 4605.36 8182.06Z" fill="#CBD8E3"/>
<path d="M5452.87 7290.63C5449.21 7294.29 5443.72 7299.78 5441.89 7299.78C5430.91 7292.46 5440.06 7288.8 5445.55 7283.31C5447.38 7286.97 5451.04 7288.8 5452.87 7290.63Z" fill="#B6C3D2"/>
<path d="M4609.04 8183.89C4603.55 8189.38 4596.23 8196.7 4590.74 8202.19L4588.91 8200.36C4594.4 8194.87 4601.72 8187.55 4607.21 8182.06C4605.38 8182.06 4609.04 8183.89 4609.04 8183.89Z" fill="#CBD8E3"/>
<path d="M5471.17 7272.33C5465.68 7277.82 5458.36 7285.14 5452.87 7290.63C5451.04 7288.8 5447.38 7285.14 5445.55 7283.31C5451.04 7277.82 5458.36 7270.5 5463.85 7265C5465.68 7268.66 5469.34 7270.5 5471.17 7272.33Z" fill="#B6C3D2"/>
<path d="M4570.58 8218.67C4576.07 8213.18 4583.39 8205.85 4588.88 8200.36L4590.71 8202.19C4585.22 8207.69 4577.9 8215.01 4572.41 8220.5L4570.58 8218.67Z" fill="#CBD8E3"/>
<path d="M4552.31 8236.97C4557.8 8231.48 4565.13 8224.16 4570.62 8218.67L4572.45 8220.5C4566.96 8225.99 4559.63 8233.31 4554.14 8238.8L4552.31 8236.97Z" fill="#CBD8E3"/>
<path d="M12694 10814.2C12776.4 10808.7 12798.4 10856.3 12796.5 10927.7C12792.9 11008.2 12754.4 11052.2 12684.9 11052.2C12619 11050.3 12558.6 10988.1 12558.6 10922.2C12558.6 10850.8 12606.2 10812.4 12694 10814.2Z" fill="white"/>
<path d="M12467.1 11076C12465.3 11123.6 12443.3 11154.7 12397.5 11158.3C12351.8 11162 12322.5 11132.7 12322.5 11087C12322.5 11039.4 12350 11002.8 12397.5 11000.9C12445.1 10999.1 12465.3 11035.7 12467.1 11076Z" fill="#F9F4F3"/>
<path d="M7839.73 14447.6C7773.83 14447.6 7707.94 14447.6 7642.04 14445.8C7649.36 14271.9 7656.69 14099.9 7665.84 13926C7671.33 13821.6 7656.69 13803.3 7550.52 13797.8C7426.05 13792.3 7301.58 13788.7 7178.94 13761.2C7125.86 13748.4 7102.06 13772.2 7092.91 13825.3C7069.12 13984.5 7041.66 14143.8 7016.03 14303C6979.42 14315.8 6942.82 14332.3 6908.04 14301.2C6964.78 13843.6 7045.32 13387.8 7116.71 12932C7178.94 12533 7235.68 12134 7294.26 11733.1C7341.85 11414.6 7389.44 11097.9 7437.03 10779.4C7457.17 10772.1 7460.83 10741 7488.29 10741C7486.45 10759.3 7484.62 10775.8 7480.96 10794.1C7479.13 10795.9 7477.3 10797.7 7477.3 10799.6C7477.3 10803.2 7479.13 10808.7 7480.96 10812.4C7491.95 10841.7 7504.76 10871 7545.03 10861.8C7609.09 10849 7674.99 10839.8 7739.06 10823.4C7793.97 10808.7 7836.07 10775.8 7843.39 10711.7C7861.69 10561.6 7865.36 10411.5 7859.86 10261.4H7858.03C7880 10254.1 7869.02 10245 7859.86 10235.8C7883.66 10191.9 7916.61 10149.8 7912.95 10094.9C7916.61 10063.7 7936.74 10034.5 7927.59 10001.5C7931.25 9997.85 7934.91 9996.02 7940.4 9996.02C7960.54 9999.68 7980.67 10003.3 8002.64 10007C8024.6 10186.4 7960.54 10360.3 7966.03 10539.7C7967.86 10614.7 7973.35 10691.6 7927.59 10759.3C7914.78 10777.6 7912.95 10797.7 7927.59 10817.9C7971.52 10874.6 7966.03 10944.2 7966.03 11010.1C7927.59 11147.4 7953.22 11286.5 7949.56 11423.8C7944.06 11566.5 7938.57 11575.7 7793.97 11575.7C7793.97 11566.5 7795.8 11557.4 7795.8 11548.2C7799.46 11414.6 7803.12 11281 7808.61 11147.4C7810.44 11096.1 7739.05 11043 7808.61 10991.8C7845.22 11021.1 7870.85 11000.9 7887.32 10968C7901.96 10940.5 7909.29 10907.6 7881.83 10885.6C7843.39 10852.7 7804.95 10863.6 7768.34 10894.8C7709.77 10911.2 7649.36 10918.6 7588.96 10914.9C7508.42 10909.4 7469.98 10947.8 7462.66 11022.9C7442.52 11205.9 7424.22 11390.8 7405.92 11573.9C7380.29 11592.2 7378.46 11610.5 7405.92 11628.8C7400.42 11641.6 7396.76 11656.2 7391.27 11669C7383.95 11705.6 7378.46 11742.3 7371.14 11778.9C7340.02 12031.5 7308.9 12285.9 7277.78 12538.5C7274.12 12569.6 7277.79 12598.9 7308.9 12617.2C7303.41 12631.8 7272.29 12652 7319.89 12652C7427.88 12650.2 7535.88 12652 7643.87 12653.8C7612.75 12681.3 7576.15 12668.5 7541.37 12670.3C7451.68 12670.3 7363.82 12672.1 7277.78 12705.1C7259.48 12712.4 7250.33 12728.9 7246.67 12747.2C7200.91 13029.1 7156.98 13310.9 7136.84 13598.3C7124.03 13647.7 7145.99 13664.2 7191.75 13655.1C7323.55 13640.4 7453.51 13603.8 7587.13 13605.6C7621.91 13636.8 7669.5 13651.4 7711.6 13653.2C7803.12 13656.9 7812.27 13706.3 7808.61 13779.5C7804.95 13850.9 7786.65 13940.6 7819.59 13993.7C7865.36 14063.2 7859.86 14129.1 7858.03 14198.7C7856.2 14284.7 7847.05 14367.1 7839.73 14447.6ZM7316.22 13741.1C7418.73 13741.1 7521.23 13741.1 7623.74 13741.1C7643.87 13741.1 7671.33 13746.6 7673.16 13717.3C7674.99 13680.7 7645.7 13684.3 7621.91 13684.3C7517.57 13684.3 7413.24 13699 7316.22 13741.1Z" fill="#005FA6"/>
<path d="M7488.32 10742.8C7460.87 10741 7457.21 10774 7437.07 10781.3C7440.73 10539.7 7488.32 10305.4 7530.42 10069.2L7532.25 10067.4V10065.6C7546.9 10039.9 7563.37 10014.3 7578.02 9988.7C7594.49 10025.3 7625.61 10032.6 7660.39 10023.5C7750.08 10003.3 7839.77 10010.7 7929.46 10005.2C7938.61 10038.1 7916.65 10067.4 7914.82 10098.5C7812.31 10115 7709.81 10131.5 7607.3 10147.9C7581.68 10155.3 7568.86 10168.1 7565.2 10197.4C7541.41 10380.4 7515.78 10561.6 7488.32 10742.8Z" fill="#0085EB"/>
<path d="M6908.04 14303C6944.65 14332.3 6981.26 14315.9 7016.04 14304.9C7017.87 14310.4 7017.87 14315.9 7019.7 14323.2C7027.02 14398.2 6984.92 14414.7 6920.85 14418.4C6820.18 14423.8 6715.84 14398.2 6617 14436.7C6587.71 14341.5 6595.04 14328.7 6690.22 14325C6763.44 14319.5 6838.48 14326.8 6908.04 14303Z" fill="#005FA6"/>
<path d="M7579.79 9990.53C7565.15 10016.2 7548.67 10041.8 7534.03 10067.4C7539.52 9866.06 7563.32 9664.71 7599.93 9467.02C7609.08 9467.02 7618.23 9467.02 7627.38 9467.02C7609.08 9639.08 7594.43 9814.81 7579.79 9990.53Z" fill="#005FA6"/>
<path d="M7532.24 10067.4L7530.41 10069.2V10071.1L7532.24 10067.4Z" fill="#005FA6"/>
<path d="M7839.75 14447.6C7845.24 14367.1 7856.22 14284.7 7858.05 14204.2C7859.88 14134.6 7863.54 14070.6 7819.61 13999.2C7786.66 13946.1 7804.97 13858.2 7808.63 13785C7812.29 13711.8 7803.14 13662.4 7711.62 13658.7C7669.52 13656.9 7621.92 13642.3 7587.15 13611.1C7623.76 13598.3 7660.36 13585.5 7696.97 13572.7C7768.36 13565.4 7863.54 13603.8 7878.19 13481.2C7907.47 13246.9 7885.51 13012.6 7903.81 12771C7830.59 12818.6 7814.12 12906.4 7739.07 12941.2C7735.41 12915.6 7731.75 12899.1 7729.92 12880.8C7735.41 12734.4 7735.41 12736.2 7585.32 12730.7C7482.81 12727 7380.31 12716 7277.8 12710.6C7363.83 12677.6 7451.69 12675.8 7541.39 12675.8C7576.16 12675.8 7614.6 12688.6 7643.89 12659.3C7746.39 12663 7737.24 12595.2 7729.92 12527.5C7739.07 12516.5 7746.39 12505.5 7755.55 12492.7C7772.02 12474.4 7772.02 12456.1 7757.38 12437.8C7759.21 12414 7759.21 12390.2 7761.04 12366.4C7766.53 12353.6 7770.19 12340.8 7775.68 12329.8C7797.65 12371.9 7819.61 12415.9 7843.41 12458C7854.39 12478.1 7858.05 12512.9 7891 12503.7C7918.46 12496.4 7914.79 12465.3 7914.79 12441.5C7916.63 12329.8 7920.29 12218.2 7931.27 12106.5C7942.25 11989.4 7933.1 11870.4 7933.1 11729.4C7858.05 11795.3 7847.07 11874 7786.66 11914.3C7781.17 11912.5 7775.68 11910.7 7768.36 11908.8C7751.89 11853.9 7812.29 11791.7 7751.89 11742.3C7766.53 11696.5 7777.51 11650.7 7772.02 11603.1C7779.34 11595.8 7786.66 11588.5 7793.99 11581.2C7938.59 11581.2 7945.91 11570.2 7949.57 11429.3C7953.23 11292 7927.61 11152.9 7966.05 11015.6C7995.33 11006.4 7973.37 10964.3 8008.15 10951.5C8059.4 11077.8 8035.6 11202.3 8042.93 11324.9C8044.76 11357.9 8022.79 11400 8072.21 11418.3C8070.38 11566.5 8106.99 11579.3 8255.26 11583C8324.81 11584.8 8394.37 11577.5 8462.1 11599.5C8608.53 11665.4 8762.29 11630.6 8914.21 11637.9C8914.21 11663.5 8914.21 11691 8914.21 11716.6C8806.22 11716.6 8700.05 11714.8 8592.06 11714.8C8452.94 11711.1 8319.32 11661.7 8178.38 11672.7C8112.48 11678.2 8075.87 11696.5 8075.87 11767.9C8077.7 11985.7 8075.87 12205.4 8075.87 12423.2C8075.87 12463.4 8086.86 12501.9 8127.13 12509.2C8251.59 12527.5 8376.06 12555 8502.36 12514.7C8668.93 12566 8839.17 12549.5 9009.4 12545.8C9046 12580.6 9024.04 12609.9 9003.9 12641C8987.43 12644.7 8972.79 12646.5 8956.31 12650.2C8938.01 12648.3 8919.7 12641 8903.23 12644.7C8762.29 12663 8621.34 12659.3 8478.57 12650.2C8332.13 12641 8182.04 12569.6 8033.77 12652C8022.79 12657.5 8004.49 12648.3 7989.84 12648.3C7964.22 12648.3 7934.93 12609.9 7916.62 12646.5C7894.66 12690.4 7940.42 12699.6 7967.88 12716C8031.94 12754.5 8074.04 12811.2 8074.04 12886.3C8072.21 13040 8088.69 13195.6 8061.23 13349.4C8048.42 13422.6 8039.26 13501.3 8116.14 13556.2C8046.59 13581.8 8083.2 13609.3 8116.14 13636.8C8081.36 13686.2 8072.21 13741.1 8075.87 13799.7C8086.86 14017.5 8063.06 14235.3 8055.74 14453.1C7986.18 14449.5 7912.96 14449.5 7839.75 14447.6Z" fill="#003A66"/>
<path d="M8059.38 14451.3C8064.87 14233.5 8088.67 14015.7 8079.51 13797.8C8075.85 13737.4 8085.01 13684.3 8119.78 13634.9C8269.88 13653.2 8421.81 13651.4 8568.24 13686.2C8570.07 13717.3 8571.9 13750.2 8573.73 13781.4C8573.73 13803.3 8575.56 13825.3 8575.56 13847.3C8568.24 14024.8 8562.75 14200.5 8555.43 14378.1C8441.94 14436.7 8324.79 14471.4 8193 14436.7C8152.73 14425.7 8105.14 14445.8 8059.38 14451.3Z" fill="#0085EB"/>
<path d="M8004.51 10012.5C7984.38 10008.8 7964.24 10005.2 7942.28 10001.5C7945.94 9992.36 7949.6 9983.21 7953.26 9974.05C7989.87 9974.05 8026.48 9975.88 8063.09 9974.05C8171.08 9966.73 8280.91 9994.19 8387.07 9957.58C8403.55 9992.36 8434.66 10001.5 8469.44 10001.5C8570.12 10005.2 8672.62 10007 8773.3 10010.7C8767.8 10049.1 8791.6 10093 8751.33 10124.2C8665.3 10082.1 8586.59 10144.3 8502.39 10140.6C8436.49 10137 8405.38 10171.7 8410.87 10243.1C8421.85 10417 8436.49 10589.1 8429.17 10763C8359.62 10739.2 8295.55 10722.7 8216.84 10741C8108.85 10766.6 8061.26 10720.9 8061.26 10603.7C8061.26 10429.8 8061.26 10257.8 8061.26 10083.9C8061.26 10043.6 8063.09 10005.2 8004.51 10012.5Z" fill="#0085EB"/>
<path d="M8555.45 14378.1C8562.77 14200.5 8568.26 14024.8 8575.58 13847.3C8745.81 13863.7 8916.04 13818 9086.27 13834.4C9044.17 13977.2 9071.63 14123.7 9067.97 14266.4C9060.65 14495.2 9097.25 14467.8 8864.79 14469.6C8800.72 14469.6 8736.66 14465.9 8674.42 14471.4C8601.21 14476.9 8564.6 14447.6 8555.45 14378.1Z" fill="#005FA6"/>
<path d="M8427.34 10761.1C8539 10808.7 8656.14 10806.9 8773.29 10795.9C8795.26 10799.6 8822.71 10792.3 8828.2 10825.2C8831.87 10854.5 8813.56 10867.3 8791.6 10878.3C8773.29 10887.4 8756.82 10896.6 8738.51 10905.7L8733.02 10909.4L8725.7 10907.6C8700.07 10907.6 8674.45 10905.7 8646.99 10905.7C8612.21 10878.3 8571.94 10871 8529.84 10869.1C8416.36 10865.5 8302.87 10861.8 8189.38 10867.3C8107.01 10871 8077.73 10903.9 8077.73 10984.5C8079.56 11129.1 8075.89 11273.7 8074.06 11420.1C8022.81 11401.8 8046.61 11359.7 8044.78 11326.7C8037.46 11204.1 8061.25 11079.6 8010 10953.3C7975.22 10966.2 7997.19 11010.1 7967.9 11017.4C7967.9 10951.5 7973.39 10883.8 7929.46 10825.2C7914.82 10805.1 7916.65 10784.9 7929.46 10766.6C7975.22 10698.9 7969.73 10622 7967.9 10547C7962.41 10367.6 8026.47 10193.7 8004.51 10014.3C8061.25 10007 8059.42 10045.4 8059.42 10083.9C8059.42 10257.8 8059.42 10429.8 8059.42 10603.7C8059.42 10719 8107.01 10766.6 8215.01 10741C8293.72 10719 8359.61 10737.3 8427.34 10761.1Z" fill="#005FA6"/>
<path d="M8714.71 9483.5C8643.32 9481.67 8573.77 9479.84 8502.38 9478.01C8324.83 9446.89 8147.28 9470.69 7969.72 9465.19C7934.94 9463.36 7898.34 9463.36 7863.56 9461.53C7841.59 9410.28 7878.2 9366.35 7881.86 9318.76C7898.34 9311.44 7914.81 9302.29 7933.11 9294.96C8066.74 9311.44 8202.19 9267.51 8335.81 9296.79C8452.96 9340.72 8579.26 9344.39 8700.07 9366.35C8723.86 9373.67 8747.66 9382.82 8771.45 9390.15C8771.45 9413.94 8771.45 9435.91 8769.62 9459.7C8751.32 9468.85 8733.01 9476.18 8714.71 9483.5Z" fill="#004B85"/>
<path d="M8751.3 12154.1C8711.03 12123 8700.05 12053.4 8628.66 12066.2C8625 12066.2 8612.19 12055.3 8614.02 12051.6C8634.15 11961.9 8555.44 11919.8 8520.66 11857.6C8526.16 11852.1 8531.65 11844.8 8538.97 11839.3C8674.42 11976.5 8674.42 11976.5 8809.87 11831.9C8813.53 11828.3 8819.03 11822.8 8822.69 11819.1C8833.67 11800.8 8870.28 11789.8 8855.63 11762.4C8842.82 11740.4 8811.7 11745.9 8789.74 11744.1C8711.03 11738.6 8632.32 11753.2 8555.44 11734.9C8570.09 11729.4 8584.73 11722.1 8599.37 11716.6C8707.37 11716.6 8813.53 11718.5 8921.53 11718.5C8928.85 11734.9 8934.34 11751.4 8941.66 11767.9C8851.97 11826.5 8786.08 11910.7 8720.18 11991.2C8670.76 12053.4 8760.45 12088.2 8771.43 12139.5C8762.28 12144.9 8756.79 12148.6 8751.3 12154.1Z" fill="#005FA6"/>
<path d="M9086.3 13834.4C8916.07 13818 8745.83 13863.7 8575.6 13847.3C8575.6 13825.3 8573.77 13803.3 8573.77 13781.4C8579.26 13779.5 8586.59 13775.9 8592.08 13774C8780.61 13770.4 8967.32 13764.9 9154.02 13741.1C9177.82 13805.2 9146.7 13830.8 9086.3 13834.4Z" fill="#B6C3D2"/>
<path d="M9155.86 13741.1C8969.16 13764.9 8780.62 13768.5 8593.92 13774C8597.58 13713.6 8643.34 13724.6 8681.78 13721C8791.61 13710 8905.09 13744.8 9013.09 13702.7C9049.7 13695.3 9097.29 13721 9113.76 13662.4C9117.42 13649.6 9124.74 13644.1 9137.56 13647.7C9144.88 13678.9 9163.18 13706.3 9155.86 13741.1Z" fill="#005FA6"/>
<path d="M5575.51 14010.2C5575.51 13979.1 5571.85 13949.8 5575.51 13918.6C5579.17 13885.7 5555.38 13830.8 5626.77 13838.1C5679.85 13843.6 5731.1 13850.9 5729.27 13924.1C5727.44 13975.4 5727.44 14026.6 5729.27 14077.9C5731.1 14142 5716.46 14180.4 5639.58 14180.4C5555.38 14182.2 5581 14123.7 5575.51 14081.6C5571.85 14059.6 5573.68 14035.8 5575.51 14010.2Z" fill="#DBDCE1"/>
<path d="M5575.5 13629.4C5575.5 13607.5 5573.67 13587.3 5575.5 13565.4C5579.16 13530.6 5555.36 13481.2 5624.92 13484.8C5681.66 13486.7 5729.25 13492.2 5729.25 13565.4C5729.25 13611.1 5731.08 13656.9 5729.25 13700.8C5727.42 13746.6 5738.41 13799.7 5657.87 13796C5584.65 13792.3 5562.68 13759.4 5573.67 13693.5C5577.33 13673.4 5573.67 13651.4 5575.5 13629.4Z" fill="#CBD8E3"/>
<path d="M7967.88 7162.5C7967.88 7087.45 7967.88 7012.41 7967.88 6935.53C7967.88 6858.65 7967.88 6781.77 7967.88 6699.4C7940.43 6714.04 7936.77 6736.01 7929.45 6754.31C7922.12 6746.99 7916.63 6739.67 7909.31 6732.35C7920.29 6703.06 7927.61 6670.11 7942.26 6642.66C7966.05 6589.57 7931.28 6591.4 7898.33 6589.57C7896.5 6540.15 7967.88 6560.29 7969.72 6514.53C7975.21 6501.71 7988.02 6487.07 7984.36 6474.26C7956.9 6331.48 7982.53 6185.05 7966.05 6042.27C7967.88 6000.17 7967.88 5958.07 7969.72 5914.14C7989.85 5866.55 8031.95 5872.04 8070.39 5875.7C8193.03 5892.18 8280.89 5853.74 8317.5 5727.44C8343.12 5767.71 8344.95 5813.47 8357.77 5857.4C8365.09 5883.03 8385.22 5895.84 8412.68 5892.18C8429.15 5890.35 8443.8 5881.2 8438.31 5862.89C8414.51 5778.69 8387.05 5696.32 8332.14 5626.76C8330.31 5624.93 8317.5 5634.09 8310.18 5637.75C8275.4 5634.09 8247.94 5650.56 8218.65 5668.86C8165.57 5701.81 8119.81 5747.57 8059.41 5767.71C8046.59 5740.25 8026.46 5721.95 7999 5710.96C8002.66 5703.64 8006.32 5698.15 8009.98 5690.83C8044.76 5689 8074.05 5668.86 8101.51 5652.39C8191.2 5599.31 8255.26 5516.94 8335.8 5451.04C8337.63 5463.86 8339.46 5476.67 8339.46 5489.48C8344.95 5507.79 8361.43 5511.45 8376.07 5516.94C8361.43 5599.31 8403.53 5657.88 8469.42 5732.93C8469.42 5645.07 8469.42 5577.34 8469.42 5511.45C8500.54 5533.41 8456.61 5612.12 8535.32 5597.48C8549.96 5707.3 8526.17 5818.96 8555.45 5926.96C8555.45 5939.77 8555.45 5954.41 8555.45 5967.23C8529.83 6016.65 8538.98 6067.9 8544.47 6117.32C8555.45 6238.13 8564.61 6357.11 8553.62 6477.92C8529.83 6531 8484.07 6538.32 8434.65 6531C8363.26 6520.02 8326.65 6545.64 8339.46 6622.52C8337.63 6628.01 8337.63 6635.34 8335.8 6640.83C8297.36 6701.23 8337.63 6761.64 8337.63 6822.04C8335.8 6834.85 8335.8 6847.67 8333.97 6862.31C8317.5 6878.78 8317.5 6895.26 8333.97 6913.56C8335.8 6977.63 8372.41 7010.57 8429.15 7027.05C8423.66 7087.45 8385.22 7122.23 8335.8 7149.69C8213.16 7114.91 8094.18 7157.01 7975.21 7169.82C7969.71 7171.65 7967.88 7167.99 7967.88 7162.5ZM8482.24 6412.02C8474.92 6280.23 8469.42 6172.23 8463.93 6066.07C8462.1 6022.14 8434.65 6009.33 8396.21 6011.16C8352.28 6012.99 8326.65 6038.61 8337.63 6082.54C8361.43 6194.2 8401.7 6300.37 8482.24 6412.02ZM8346.78 6309.52C8322.99 6357.11 8315.67 6401.04 8315.67 6446.8C8315.67 6472.43 8317.5 6498.05 8350.45 6499.88C8377.9 6501.71 8409.02 6505.37 8429.15 6494.39C8454.78 6477.92 8429.15 6450.46 8421.83 6430.33C8409.02 6388.23 8390.71 6344.3 8346.78 6309.52Z" fill="#003A66"/>
<path d="M7934.96 3871.38C7967.9 3805.49 7960.58 3734.1 7964.24 3666.37C7971.56 3483.33 7969.73 3302.12 7971.56 3119.07C7971.56 3089.79 7977.06 3055.01 7934.96 3045.86C7988.04 2968.98 7991.7 2875.63 8006.34 2789.6C8013.66 2747.5 8030.14 2725.53 8070.41 2743.83C8154.61 2785.93 8255.28 2774.95 8337.65 2822.54C8282.74 2893.93 8297.38 2976.3 8374.26 3029.38C8357.79 3058.67 8297.38 3031.21 8301.04 3086.13C8299.21 3358.86 8299.21 3633.43 8297.38 3906.16C8174.74 3904.33 8052.1 3909.82 7934.96 3871.38Z" fill="#005FA6"/>
<path d="M7953.24 5000.76C7988.02 4925.71 7969.71 4847 7967.88 4770.12C7967.88 4654.81 7986.19 4535.83 7951.41 4422.34C7951.41 4415.02 7951.41 4407.7 7951.41 4400.38C7958.73 4387.56 7966.05 4372.92 7973.37 4360.11C8079.54 4369.26 8185.7 4378.41 8293.7 4389.39C8295.53 4393.05 8297.36 4398.54 8301.02 4402.21C8301.02 4585.25 8299.19 4768.29 8299.19 4949.51C8299.19 4980.62 8301.02 5009.91 8319.33 5037.37C8251.6 5046.52 8187.53 5015.4 8119.81 5017.23C8066.73 4984.28 8008.15 5006.25 7953.24 5000.76Z" fill="#B6C3D2"/>
<path d="M8333.99 5454.71C8255.28 5520.6 8189.38 5602.97 8099.69 5656.06C8072.24 5672.53 8042.95 5692.66 8008.17 5694.5C7993.53 5615.79 8004.51 5524.26 7900.17 5494.98C7900.17 5489.49 7900.17 5485.83 7900.17 5480.33C7931.29 5436.4 7914.82 5386.98 7907.5 5341.22C7898.34 5286.31 7920.31 5262.51 7967.9 5247.87C8053.93 5222.24 8141.79 5213.09 8225.99 5238.72C8295.55 5260.68 8361.45 5284.48 8436.49 5277.16C8491.41 5271.66 8473.1 5306.44 8458.46 5335.73C8372.43 5330.24 8368.77 5408.95 8333.99 5454.71Z" fill="#0085EB"/>
<path d="M7975.19 4360.1C7967.87 4372.92 7960.54 4387.56 7953.22 4400.37C7940.41 4389.39 7925.77 4378.41 7912.95 4367.43C7777.5 4310.68 7632.9 4281.39 7510.26 4195.36C7495.61 4171.57 7477.31 4151.43 7449.85 4144.11C7449.85 4129.47 7448.02 4112.99 7448.02 4098.35C7473.65 4096.52 7497.44 4094.69 7523.07 4091.03C7570.66 4142.28 7634.73 4138.62 7696.96 4145.94L7706.11 4149.6L7715.27 4147.77C7768.35 4193.53 7836.07 4189.87 7898.31 4204.52C7944.07 4242.96 7982.51 4288.72 7975.19 4360.1Z" fill="#003A66"/>
<path d="M8301.04 4400.37C8299.21 4396.71 8295.55 4391.22 8293.71 4387.56C8312.02 4312.51 8291.88 4237.46 8302.87 4162.41C8355.95 4166.08 8407.2 4164.24 8458.45 4131.3C8427.34 4085.54 8376.08 4074.55 8332.15 4054.42C8352.29 4047.1 8372.42 4039.77 8394.39 4032.45C8460.28 4061.74 8528.01 4091.03 8593.91 4120.31C8586.58 4142.28 8551.81 4142.28 8551.81 4169.74C8570.11 4189.87 8595.74 4175.23 8615.87 4180.72C8608.55 4188.04 8601.23 4193.53 8593.91 4200.85C8511.54 4250.27 8396.22 4217.33 8321.17 4301.53C8416.35 4332.64 8506.05 4274.07 8593.91 4307.02C8570.11 4358.27 8531.67 4382.07 8473.1 4385.73C8434.66 4387.56 8394.39 4374.74 8366.93 4427.83C8346.8 4466.27 8332.15 4391.22 8301.04 4400.37Z" fill="#005FA6"/>
<path d="M7751.88 4929.37C7709.78 4918.39 7724.42 4863.47 7684.15 4841.51C7640.22 4934.86 7594.46 5026.38 7550.53 5117.9C7530.39 5062.99 7554.19 5019.06 7579.81 4978.79C7658.52 4854.32 7667.68 4731.68 7592.63 4601.72C7556.02 4537.66 7537.71 4464.44 7491.95 4398.54C7491.95 4576.09 7491.95 4753.65 7491.95 4931.2C7464.5 4735.34 7480.97 4539.49 7484.63 4343.63C7484.63 4330.82 7499.28 4318 7506.6 4305.19C7556.02 4422.34 7601.78 4541.32 7653.03 4656.63C7689.64 4744.49 7748.21 4826.86 7751.88 4929.37Z" fill="#0085EB"/>
<path d="M7792.14 5502.3C7801.29 5487.65 7810.45 5473.01 7821.43 5460.2C7847.05 5467.52 7874.51 5473.01 7900.14 5480.33C7900.14 5485.82 7900.14 5489.48 7900.14 5494.98C7922.1 5581.01 7911.12 5670.7 7918.44 5765.88C7951.39 5743.91 7975.18 5729.27 7997.15 5714.63C8026.44 5723.78 8046.57 5743.91 8057.55 5771.37C7982.51 5820.79 7938.58 5921.47 7826.92 5908.65C7825.09 5903.16 7823.26 5897.67 7821.43 5894.01C7883.66 5767.71 7869.02 5641.41 7808.61 5518.77C7804.95 5513.28 7799.46 5507.79 7792.14 5502.3Z" fill="#005FA6"/>
<path d="M7513.92 2919.55C7513.92 2908.57 7510.26 2890.27 7523.07 2888.44C7658.53 2864.64 7788.49 2807.9 7931.26 2813.39C7903.8 2884.78 7834.25 2871.96 7777.5 2890.27C7793.98 2917.72 7821.43 2910.4 7843.4 2914.06C7867.2 2919.55 7903.8 2906.74 7898.31 2952.5C7892.82 2994.6 7859.87 2996.43 7830.59 2990.94C7733.57 2970.81 7636.56 2947.01 7539.55 2925.05C7530.4 2923.22 7523.07 2921.39 7513.92 2919.55Z" fill="#F1DAD2"/>
<path d="M8354.08 3906.16C8416.32 3796.34 8478.55 3684.68 8542.62 3574.85C8581.06 3512.62 8579.23 3457.7 8537.13 3397.3C8495.03 3338.73 8445.6 3283.81 8425.47 3212.43L8423.64 3214.26C8491.36 3236.22 8504.18 3303.95 8538.96 3353.37C8606.68 3446.72 8604.85 3448.55 8654.27 3351.54C8659.76 3342.39 8663.43 3327.74 8689.05 3329.57C8663.43 3419.26 8654.27 3510.79 8690.88 3607.8C8641.46 3594.99 8641.46 3552.89 8608.51 3527.26C8548.11 3666.37 8443.77 3779.86 8399.84 3926.3C8387.03 3918.97 8370.56 3911.65 8354.08 3906.16Z" fill="#005FA6"/>
<path d="M8372.43 3029.38C8295.56 2976.29 8280.91 2893.92 8335.83 2822.54C8462.13 2848.16 8588.42 2875.62 8722.05 2903.08C8588.42 3029.38 8473.11 2901.25 8350.47 2884.77C8372.43 2948.84 8434.67 2950.67 8469.45 2992.77C8443.82 3027.55 8407.21 3022.05 8372.43 3029.38Z" fill="#F1DAD2"/>
<path d="M7502.92 5143.53C7530.38 5185.63 7561.5 5163.66 7596.28 5154.51C7713.42 5123.39 7808.61 5031.87 7933.08 5020.89C7931.25 5064.82 7931.25 5106.92 7929.42 5150.85C7914.77 5145.36 7900.13 5134.38 7887.32 5138.04C7773.83 5169.16 7662.17 5203.93 7550.52 5238.71C7512.08 5218.58 7484.62 5192.95 7502.92 5143.53Z" fill="#0085EB"/>
<path d="M8317.48 5041.03C8436.46 4965.98 8484.05 4841.51 8533.47 4718.87C8549.95 4674.94 8564.59 4634.67 8624.99 4618.2C8597.54 4766.46 8732.99 4837.85 8769.6 4956.83C8764.11 4960.49 8756.79 4965.98 8751.29 4969.64C8707.36 4912.9 8665.26 4854.32 8621.33 4797.58C8601.2 4773.78 8575.57 4748.16 8551.78 4790.26C8502.36 4872.63 8458.42 4958.66 8412.66 5042.86C8409 5048.35 8423.65 5062.99 8429.14 5072.14C8390.7 5061.16 8354.09 5052.01 8317.48 5041.03Z" fill="#0085EB"/>
<path d="M7545.02 5494.98C7598.1 5551.72 7574.31 5650.56 7651.19 5696.32C7653.02 5698.15 7653.02 5709.14 7649.36 5712.8C7557.84 5791.51 7656.68 5859.23 7660.34 5930.62C7565.16 5961.74 7545.02 5899.5 7534.04 5828.12C7521.23 5745.75 7535.87 5661.55 7512.07 5579.18C7523.06 5549.89 7534.04 5522.43 7545.02 5494.98Z" fill="#B6C3D2"/>
<path d="M7955.04 4048.93C8070.36 4036.12 8172.86 4094.69 8282.69 4103.85C8297.33 4113 8299.16 4127.64 8293.67 4144.12C8209.47 4158.76 8125.27 4169.74 8041.07 4188.05C8006.29 4195.37 7977 4189.88 7947.72 4175.23C7949.55 4133.13 7951.38 4091.03 7955.04 4048.93Z" fill="#005FA6"/>
<path d="M7552.37 5236.88C7664.02 5203.94 7777.51 5169.16 7889.17 5136.21C7900.15 5132.55 7916.62 5145.36 7931.27 5149.02C7942.25 5194.78 7920.28 5216.75 7876.35 5224.07C7839.74 5229.56 7804.97 5238.71 7770.19 5244.21C7759.2 5273.49 7799.47 5278.98 7799.47 5310.1C7706.12 5317.42 7631.07 5271.66 7552.37 5236.88Z" fill="#F1DAD2"/>
<path d="M7695.17 4142.28C7634.76 4134.96 7568.87 4138.62 7521.28 4087.37C7632.93 4050.76 7744.59 4014.15 7856.25 3981.2C7880.04 3973.88 7933.13 3935.44 7931.29 4010.49C7847.09 4045.27 7770.22 4091.03 7695.17 4142.28Z" fill="#F1DAD2"/>
<path d="M7955.08 4048.93C7953.25 4091.03 7951.42 4133.13 7947.76 4175.23C7929.46 4184.38 7912.98 4191.7 7894.68 4200.85C7832.44 4186.21 7764.72 4189.87 7711.63 4144.11C7799.5 4134.96 7869.05 4089.2 7933.12 4032.45C7940.44 4037.94 7947.76 4043.44 7955.08 4048.93Z" fill="#F1DAD2"/>
<path d="M8593.88 4120.32C8527.99 4091.03 8460.26 4061.74 8394.37 4032.46C8396.2 3990.36 8425.48 4005 8447.45 4008.66C8537.14 4023.3 8626.83 4039.78 8722.01 4056.25C8687.23 4105.67 8632.32 4098.35 8593.88 4120.32Z" fill="#F1DAD2"/>
<path d="M8467.56 5516.94C8467.56 5584.67 8467.56 5650.56 8467.56 5738.42C8401.67 5663.37 8359.57 5604.8 8374.21 5522.43C8407.16 5535.24 8430.96 5429.08 8467.56 5516.94Z" fill="#33A7FF"/>
<path d="M8806.19 5244.21C8727.48 5300.95 8645.11 5350.37 8522.48 5366.85C8604.85 5262.51 8709.18 5260.68 8806.19 5244.21Z" fill="#F1DAD2"/>
<path d="M8862.98 4200.86C8795.25 4296.04 8767.79 4415.02 8687.25 4502.88C8725.69 4369.26 8797.08 4248.45 8864.81 4127.64C8864.81 4151.44 8862.98 4175.23 8862.98 4200.86Z" fill="#005FA6"/>
<path d="M8293.7 4144.12C8299.2 4127.64 8297.36 4114.83 8282.72 4103.85C8273.57 4061.75 8302.86 4058.09 8332.14 4054.43C8376.07 4074.56 8427.33 4085.54 8458.44 4131.3C8407.19 4164.25 8355.94 4166.08 8302.86 4162.42C8299.2 4156.93 8297.36 4151.44 8293.7 4144.12Z" fill="#F1DAD2"/>
<path d="M8333.94 5454.71C8368.71 5407.11 8372.37 5328.41 8458.4 5335.73C8458.4 5418.1 8381.53 5443.72 8337.6 5493.14C8337.6 5480.33 8335.77 5467.52 8333.94 5454.71Z" fill="#0085EB"/>
<path d="M7934.9 4032.45C7870.84 4089.2 7801.28 4134.96 7713.42 4144.11L7704.27 4145.94L7695.12 4142.28C7770.17 4091.03 7847.04 4045.27 7931.24 4012.32C7933.07 4019.64 7933.07 4025.13 7934.9 4032.45Z" fill="#005FA6"/>
<path d="M8546.29 5196.61C8493.2 5224.07 8405.34 5231.39 8324.8 5213.09C8379.72 5170.99 8414.49 5169.16 8546.29 5196.61Z" fill="#F1DAD2"/>
<path d="M7912.98 3062.32C7876.37 3126.39 7839.76 3188.62 7803.15 3252.69C7788.51 3175.81 7843.42 3128.22 7859.89 3065.98C7878.2 3064.15 7894.67 3064.15 7912.98 3062.32Z" fill="#0085EB"/>
<path d="M8828.2 3082.46C8797.08 3131.88 8795.25 3201.43 8714.71 3241.7C8747.66 3168.49 8767.8 3109.91 8808.07 3062.32C8815.39 3069.64 8822.71 3075.13 8828.2 3082.46Z" fill="#005FA6"/>
<path d="M7953.21 5000.76C8008.12 5006.25 8066.7 4984.28 8119.78 5017.23C8063.03 5017.23 8004.46 5015.4 7947.72 5015.4C7947.72 5009.91 7949.55 5004.42 7953.21 5000.76Z" fill="#0085EB"/>
<path d="M8822.69 2947.01C8830.01 2943.35 8835.5 2941.52 8842.82 2937.86C8842.82 2945.18 8842.82 2954.33 8842.82 2961.66C8835.5 2957.99 8830.01 2952.5 8822.69 2947.01Z" fill="#F9F4F3"/>
<path d="M8335.82 7640.24C8337.65 7645.74 8339.48 7649.4 8339.48 7654.89C8333.99 7726.27 8328.49 7795.83 8324.83 7867.22C8321.17 7934.94 8319.34 8002.67 8315.68 8070.4C8202.19 8075.89 8088.71 8090.53 7986.2 8024.64C7944.1 7911.15 7951.42 7792.17 7953.26 7673.19C7953.26 7654.89 7955.09 7636.58 7955.09 7620.11C8081.39 7625.6 8209.52 7596.31 8335.82 7640.24Z" fill="#005FA6"/>
<path d="M7986.18 8022.81C8088.68 8088.7 8204 8074.06 8315.66 8068.57C8319.32 8185.72 8319.32 8185.72 8204 8185.72C8114.31 8185.72 8024.62 8183.88 7934.92 8182.05C7933.09 8150.94 7933.09 8121.65 7931.26 8090.53C7947.74 8066.74 7997.16 8068.57 7986.18 8022.81Z" fill="#003A66"/>
<path d="M7947.72 7559.71C7953.21 7554.22 7960.53 7546.9 7966.02 7541.41C8090.49 7548.73 8213.13 7556.05 8337.6 7563.37C8337.6 7589 8337.6 7614.62 8335.77 7638.42C8211.3 7594.49 8081.34 7623.78 7953.21 7616.45C7951.38 7598.15 7949.55 7579.85 7947.72 7559.71Z" fill="#003A66"/>
<path d="M7966.04 1984.2C7973.37 1976.87 7978.86 1971.38 7986.18 1964.06C8090.51 1969.55 8196.68 1976.87 8301.01 1982.36C8463.92 2018.97 8626.83 2055.58 8791.57 2092.19C8797.06 2094.02 8802.55 2094.02 8806.21 2095.85C8806.21 2137.95 8806.21 2180.05 8806.21 2223.98H8798.89H8791.57C8700.05 2205.68 8663.44 2284.39 8599.37 2333.81C8599.37 2297.2 8604.87 2260.59 8548.12 2278.9C8484.06 2302.69 8414.5 2315.5 8348.6 2331.98C8337.62 2333.81 8328.47 2337.47 8317.49 2339.3C8317.49 2321 8317.49 2300.86 8319.32 2282.56C8425.48 2255.1 8533.48 2227.64 8650.63 2176.39C8562.77 2156.26 8498.7 2196.53 8430.97 2191.03C8423.65 2180.05 8416.33 2167.24 8409.01 2156.26C8458.43 2114.16 8520.67 2148.93 8581.07 2126.97C8504.19 2086.7 8427.31 2092.19 8350.44 2103.17C8301.01 2110.5 8288.2 2145.27 8297.35 2189.2C8187.53 2191.03 8079.53 2192.87 7969.71 2192.87C7969.71 2121.48 7967.87 2053.75 7966.04 1984.2Z" fill="#004B85"/>
<path d="M8321.13 2282.56C8321.13 2300.86 8321.13 2321 8319.3 2339.3C8218.62 2374.08 8114.29 2348.46 8009.95 2355.78C7977.01 2339.3 7986.16 2308.19 7982.5 2280.73C8088.66 2234.97 8200.32 2240.46 8311.98 2242.29C8317.47 2255.1 8319.3 2269.75 8321.13 2282.56Z" fill="#0085EB"/>
<path d="M8315.67 2242.29C8204.01 2242.29 8092.36 2234.97 7986.19 2280.73C7960.57 2253.28 7971.55 2222.16 7973.38 2191.04C8083.21 2189.21 8191.2 2187.38 8301.03 2187.38C8346.79 2205.69 8376.08 2169.08 8412.68 2154.43C8420.01 2165.42 8427.33 2178.23 8434.65 2189.21C8396.21 2213.01 8359.6 2234.97 8315.67 2242.29Z" fill="#005FA6"/>
<path d="M8011.84 2355.78C8114.34 2346.63 8218.68 2374.08 8321.18 2339.31C8332.16 2337.48 8341.32 2333.81 8352.3 2331.98C8370.6 2383.24 8341.32 2385.07 8304.71 2377.75C8205.86 2357.61 8107.02 2392.39 8011.84 2355.78Z" fill="#0085EB"/>
<path d="M8723.88 1396.62C8740.35 1403.95 8758.66 1413.1 8775.13 1420.42C8782.45 1435.06 8797.1 1438.72 8811.74 1438.72C8809.91 1462.52 8808.08 1484.48 8806.25 1508.28C8800.76 1510.11 8795.27 1511.94 8789.77 1511.94C8753.17 1526.59 8716.56 1555.87 8681.78 1554.04C8546.33 1546.72 8427.35 1605.29 8301.05 1636.41C8301.05 1632.75 8301.05 1627.26 8299.22 1623.6C8299.22 1603.46 8299.22 1581.5 8301.05 1561.36C8410.87 1535.74 8518.87 1510.11 8647 1480.82C8522.53 1458.86 8421.86 1500.96 8317.52 1489.98C8317.52 1475.33 8317.52 1460.69 8317.52 1446.05C8350.47 1444.22 8385.25 1446.05 8416.37 1436.89C8517.04 1409.44 8626.87 1442.38 8723.88 1396.62Z" fill="#004B85"/>
<path d="M8546.32 926.207C8460.29 926.207 8398.05 926.207 8335.82 926.207C8317.51 926.207 8297.38 922.546 8299.21 898.75C8301.04 874.955 8319.34 869.463 8337.65 873.124C8401.71 882.276 8467.61 884.107 8546.32 926.207Z" fill="#33A7FF"/>
<path d="M8246.12 1034.2C8187.54 1070.81 8123.48 1052.5 8063.07 1048.84C8117.99 977.457 8180.22 981.118 8246.12 1034.2Z" fill="#003A66"/>
<path d="M8484.04 1017.73C8484.04 1014.07 8484.04 1008.58 8485.87 1004.92C8487.7 1004.92 8491.36 1004.92 8493.19 1006.75C8489.53 1010.41 8485.87 1014.07 8484.04 1017.73Z" fill="#F9F4F3"/>
<path d="M7971.55 1292.29C7977.05 1292.29 7982.54 1290.46 7986.2 1288.63C8097.86 1295.95 8207.68 1301.44 8319.34 1308.76C8427.33 1328.9 8537.16 1349.03 8645.16 1367.34C8533.5 1413.1 8418.18 1409.44 8301.03 1387.47C8198.53 1349.03 8092.36 1372.83 7989.86 1365.51L7980.71 1363.68L7971.55 1365.51C7973.39 1339.88 7971.55 1316.09 7971.55 1292.29Z" fill="#004B85"/>
<path d="M7660.34 962.814C7742.71 920.714 7830.57 913.392 7918.43 907.901C7936.73 906.071 7958.7 913.392 7956.87 935.358C7956.87 955.492 7936.73 962.814 7916.6 962.814C7832.4 962.814 7746.37 962.814 7660.34 962.814Z" fill="#F1DAD2"/>
<path d="M7770.16 1255.68C7761.01 1162.33 7854.36 1144.02 7896.46 1087.28C7911.1 1067.15 7944.05 1063.49 7955.03 1036.03C7966.02 1054.33 7977 1074.47 7987.98 1092.77C7909.27 1092.77 7879.99 1160.5 7836.06 1206.26C7815.92 1224.56 7806.77 1255.68 7770.16 1255.68Z" fill="#F1DAD2"/>
<path d="M8335.81 7563.37C8211.34 7556.05 8088.7 7548.73 7964.23 7541.41C7966.06 7418.77 7969.72 7297.96 7971.55 7175.32C8092.36 7162.5 8209.51 7122.24 8332.15 7155.18C8333.98 7158.84 8335.81 7162.5 8335.81 7168C8328.49 7296.13 8328.49 7424.26 8335.81 7552.39C8339.47 7556.05 8337.64 7559.71 8335.81 7563.37Z" fill="#005FA6"/>
<path d="M8333.94 6648.15C8335.77 6642.66 8335.77 6635.34 8337.6 6629.85C8500.5 6626.18 8500.51 6626.18 8500.51 6789.09C8500.51 6833.02 8500.51 6878.78 8500.51 6944.68C8416.31 6845.84 8370.54 6748.82 8333.94 6648.15Z" fill="#33A7FF"/>
<path d="M8427.31 7032.54C8370.56 7016.07 8333.96 6981.29 8332.12 6919.06C8332.12 6902.58 8332.12 6886.11 8332.12 6867.8C8333.96 6854.99 8333.96 6842.18 8335.79 6827.53C8394.36 6862.31 8416.33 6928.21 8454.76 6979.46C8478.56 7010.58 8463.92 7030.71 8427.31 7032.54Z" fill="#0085EB"/>
<path d="M7843.38 5974.55C7830.57 5974.55 7817.76 5972.72 7806.78 5972.72C7814.1 5952.58 7821.42 5930.62 7828.74 5910.48C7940.4 5923.3 7984.33 5822.62 8059.38 5773.2C8119.78 5753.06 8165.54 5707.3 8218.62 5674.36C8247.91 5656.05 8273.54 5639.58 8310.15 5643.24C8311.98 5672.53 8315.64 5703.64 8317.47 5732.93C8280.86 5857.4 8193 5895.84 8070.36 5881.2C8033.75 5875.7 7989.82 5872.04 7969.68 5919.63C7922.09 5925.13 7878.16 5939.77 7843.38 5974.55Z" fill="#0085EB"/>
<path d="M7770.22 5992.85C7755.58 6018.48 7740.94 6044.11 7728.12 6071.56C7695.18 6141.12 7656.74 6186.88 7589.01 6102.68C7583.52 6095.36 7567.05 6095.36 7556.06 6091.7C7532.27 6005.67 7568.88 5978.21 7653.08 5989.19C7691.52 5994.68 7729.95 5992.85 7770.22 5992.85Z" fill="#DBDCE1"/>
<path d="M7966.06 6044.1C7925.79 6106.34 7903.82 6175.89 7878.2 6243.62C7869.04 6238.13 7858.06 6232.64 7848.91 6225.31C7847.08 6141.11 7847.08 6056.91 7845.25 5972.71C7880.03 5937.94 7923.96 5923.29 7971.55 5914.14C7967.89 5959.9 7967.89 6002 7966.06 6044.1Z" fill="#004B85"/>
<path d="M7929.42 6756.15C7936.74 6737.85 7940.4 6715.88 7967.85 6701.24C7967.85 6781.78 7967.85 6858.65 7967.85 6937.36C7955.04 6961.16 7949.55 6994.11 7929.42 7003.26C7889.15 7025.22 7852.54 7019.73 7859.86 6957.5C7901.96 6897.09 7900.13 6822.05 7929.42 6756.15Z" fill="#33A7FF"/>
<path d="M7989.84 1363.68C8094.17 1371 8200.34 1347.21 8301.01 1385.65C8295.52 1409.44 8299.18 1429.58 8317.49 1446.05C8317.49 1460.69 8317.49 1475.34 8317.49 1489.98C8306.51 1499.13 8297.35 1508.28 8286.37 1517.44C8229.63 1517.44 8171.05 1515.61 8114.31 1517.44C8055.74 1519.27 8008.14 1537.57 7986.18 1597.98C7841.57 1565.03 7693.31 1555.88 7552.37 1506.45C7572.5 1484.49 7601.79 1499.13 7625.58 1489.98C7664.02 1517.44 7707.95 1508.29 7750.05 1513.78C7815.95 1548.55 7883.67 1539.4 7947.74 1515.61C8026.45 1484.49 7971.54 1413.1 7989.84 1363.68Z" fill="#005FA6"/>
<path d="M7971.51 1292.29C7971.51 1316.09 7973.34 1341.71 7973.34 1365.51C7837.88 1383.81 7704.26 1402.12 7568.81 1403.95C7574.3 1385.65 7587.11 1372.83 7605.42 1367.34C7726.23 1334.39 7837.88 1257.51 7971.51 1292.29Z" fill="#F1DAD2"/>
<path d="M7751.9 1511.95C7709.8 1506.45 7665.87 1515.61 7627.43 1488.15C7627.43 1471.68 7629.26 1460.69 7649.4 1455.2C7748.24 1429.58 7841.59 1444.22 7949.59 1479C7878.2 1515.61 7808.64 1475.34 7751.9 1511.95Z" fill="#F1DAD2"/>
<path d="M7751.87 11744.1C7660.35 11769.7 7559.68 11747.7 7471.81 11800.8C7440.7 11819.1 7407.75 11767.9 7371.14 11789.8C7378.46 11753.2 7383.95 11716.6 7391.28 11680C7523.07 11681.9 7643.88 11625.1 7773.84 11606.8C7777.5 11652.6 7766.51 11698.3 7751.87 11744.1Z" fill="#0085EB"/>
<path d="M7277.81 12547.6C7314.42 12542.2 7330.9 12511 7351.03 12483.6C7438.89 12364.6 7524.92 12243.8 7610.95 12123C7642.07 12079.1 7680.51 12037 7645.73 11976.6C7695.15 11971.1 7709.8 12024.1 7750.07 12018.7C7775.69 12035.1 7775.69 12053.4 7755.56 12073.6C7715.29 12047.9 7693.32 12064.4 7667.7 12101C7594.48 12216.3 7512.11 12326.2 7438.89 12443.3C7400.45 12503.7 7332.73 12544 7314.42 12619C7312.59 12620.9 7308.93 12624.5 7307.1 12626.4C7277.81 12608.1 7274.15 12580.6 7277.81 12547.6Z" fill="#0085EB"/>
<path d="M7728.11 12531.2C7735.43 12598.9 7746.42 12668.5 7642.08 12663C7534.09 12663 7426.09 12661.1 7318.1 12661.1C7270.5 12661.1 7301.62 12641 7307.11 12626.4C7310.77 12624.5 7312.6 12622.7 7314.43 12619C7449.89 12573.3 7592.66 12566 7728.11 12531.2Z" fill="#0085EB"/>
<path d="M7316.21 13741.1C7413.23 13697.2 7515.73 13684.3 7621.9 13684.3C7645.69 13684.3 7674.98 13680.7 7673.15 13717.3C7671.32 13746.6 7643.86 13741.1 7623.73 13741.1C7521.22 13741.1 7418.72 13741.1 7316.21 13741.1Z" fill="#F1DAD2"/>
<path d="M7861.71 10266.9C7854.39 10252.3 7810.46 10294.4 7828.77 10246.8C7863.55 10162.6 7815.95 10155.3 7751.89 10155.3C7704.3 10155.3 7656.71 10151.6 7607.28 10149.8C7709.79 10133.3 7812.29 10116.8 7914.8 10100.3C7916.63 10155.3 7885.51 10195.5 7861.71 10241.3C7861.71 10248.6 7859.88 10257.8 7861.71 10266.9Z" fill="#005FA6"/>
<path d="M7808.64 10999.1C7799.49 10964.3 7826.95 10914.9 7768.37 10902.1C7803.15 10871 7843.42 10860 7881.86 10892.9C7909.31 10916.7 7900.16 10947.8 7887.35 10975.3C7870.88 11008.3 7845.25 11028.4 7808.64 10999.1Z" fill="#003A66"/>
<path d="M7405.91 11581.2C7416.9 11579.3 7433.37 11572 7437.03 11586.7C7442.52 11610.5 7427.88 11626.9 7405.91 11636.1C7378.46 11619.6 7378.46 11601.3 7405.91 11581.2Z" fill="#0085EB"/>
<path d="M7482.83 10795.9C7482.83 10801.4 7482.83 10808.7 7482.83 10814.2C7481 10810.6 7479.17 10805.1 7479.17 10801.4C7479.17 10801.4 7481 10797.7 7482.83 10795.9Z" fill="#0085EB"/>
<path d="M7859.89 10266.9C7859.89 10257.8 7861.72 10248.6 7861.72 10241.3C7870.87 10250.5 7881.86 10259.6 7859.89 10266.9Z" fill="#DBDCE1"/>
<path d="M8961.84 12650.2C8852.01 12666.6 8742.19 12684.9 8630.53 12697.7C8555.48 12706.9 8517.04 12730.7 8522.53 12816.7C8528.03 12889.9 8573.79 12966.8 8559.14 13023.6C8533.52 13124.2 8560.97 13215.8 8557.31 13310.9C8553.65 13398.8 8560.97 13486.7 8562.8 13574.5C8432.84 13583.7 8302.88 13574.5 8174.75 13561.7C8167.43 13559.9 8158.28 13559.9 8150.96 13558C8141.8 13556.2 8130.82 13554.4 8121.67 13552.6C8044.79 13499.5 8055.77 13420.8 8066.76 13345.7C8092.38 13192 8077.74 13036.4 8079.57 12882.6C8079.57 12807.6 8037.47 12752.7 7973.4 12712.4C7945.95 12695.9 7900.19 12686.8 7922.15 12642.8C7940.46 12608.1 7969.74 12646.5 7995.37 12644.7C8010.01 12644.7 8028.32 12653.8 8039.3 12648.3C8187.56 12565.9 8337.66 12637.3 8484.09 12646.5C8626.87 12653.8 8767.81 12657.5 8908.76 12641C8925.23 12642.8 8943.53 12648.3 8961.84 12650.2Z" fill="#3B3C43"/>
<path d="M8595.69 11714.8C8581.05 11720.3 8566.4 11727.6 8551.76 11733.1C8529.8 11733.1 8507.83 11733.1 8485.86 11733.1C8473.05 11729.4 8463.9 11729.4 8471.22 11747.7C8485.86 11767.9 8500.51 11789.8 8513.32 11810C8507.83 11815.5 8500.51 11821 8495.02 11826.5C8467.56 11828.3 8473.05 11844.8 8474.88 11864.9C8485.86 12080.9 8496.85 12298.7 8507.83 12514.7C8381.53 12556.8 8257.06 12529.3 8132.59 12509.2C8092.32 12503.7 8081.34 12465.3 8081.34 12423.2C8081.34 12205.4 8083.17 11985.7 8081.34 11767.9C8081.34 11696.5 8117.95 11678.2 8183.84 11672.7C8322.96 11661.7 8456.58 11711.1 8595.69 11714.8Z" fill="#0085EB"/>
<path d="M8074.02 11418.3C8075.85 11273.7 8079.51 11129.1 8077.68 10982.6C8075.85 10902.1 8106.97 10869.1 8189.34 10865.5C8302.82 10861.8 8416.31 10863.6 8529.8 10867.3C8571.9 10869.1 8612.17 10876.5 8646.94 10903.9L8645.11 10905.7C8430.95 10892.9 8430.95 10892.9 8449.26 11050.3C8449.26 11052.2 8452.92 11054 8463.9 11061.3C8515.15 11026.5 8568.24 10989.9 8621.32 10953.3C8626.81 10958.8 8634.13 10964.3 8639.62 10969.8C8588.37 11015.6 8549.93 11076 8491.36 11114.4C8443.77 11147.4 8443.77 11202.3 8447.43 11255.4C8454.75 11370.7 8471.22 11484.2 8465.73 11599.5C8398 11577.5 8328.45 11583 8258.89 11583C8108.8 11579.3 8072.19 11566.5 8074.02 11418.3Z" fill="#0085EB"/>
<path d="M7713.47 13084C7713.47 13063.8 7713.47 13043.7 7713.47 13023.6C7724.45 12977.8 7707.98 12928.4 7729.94 12882.6C7731.77 12900.9 7735.43 12917.4 7739.09 12943C7814.14 12908.2 7830.61 12818.5 7903.83 12772.8C7885.53 13014.4 7907.49 13248.7 7878.21 13483C7861.73 13607.5 7768.38 13567.2 7696.99 13574.5C7702.48 13409.8 7707.98 13246.9 7713.47 13084Z" fill="#005FA6"/>
<path d="M7761.02 12329.8C7759.19 12245.6 7757.36 12159.6 7755.53 12075.4C7775.66 12055.3 7775.66 12037 7750.04 12020.5C7755.53 12004 7761.02 11985.7 7766.51 11969.2C7790.31 11958.2 7788.48 11936.3 7788.48 11916.1C7848.88 11875.9 7858.03 11797.2 7934.91 11731.3C7934.91 11872.2 7944.06 11991.2 7933.08 12108.3C7922.1 12220 7920.27 12331.7 7916.61 12443.3C7916.61 12467.1 7918.44 12498.2 7892.81 12505.5C7861.69 12514.7 7856.2 12479.9 7845.22 12459.8C7821.42 12417.7 7799.46 12373.8 7777.49 12331.7C7770.17 12329.8 7766.51 12329.8 7761.02 12329.8Z" fill="#005FA6"/>
<path d="M8174.74 13561.7C8304.7 13574.5 8432.83 13583.7 8562.79 13574.5H8560.96C8657.98 13658.7 8780.62 13622.1 8890.44 13640.4C8954.51 13651.4 9025.89 13671.5 9095.45 13649.6C9100.94 13653.2 9106.43 13658.7 9111.92 13662.4C9095.45 13719.1 9047.86 13695.3 9011.25 13702.7C8864.82 13677 8716.55 13680.7 8568.28 13686.2C8420.02 13649.6 8269.92 13651.4 8119.83 13634.9C8086.88 13607.5 8050.27 13581.8 8119.83 13554.4C8128.98 13556.2 8139.96 13558 8149.11 13559.9C8156.44 13569 8165.59 13572.7 8174.74 13561.7Z" fill="#004B85"/>
<path d="M7786.65 11916.1C7788.48 11938.1 7790.31 11958.2 7764.68 11969.2C7751.87 11949.1 7750.04 11929 7768.35 11910.7C7773.84 11912.5 7781.16 11914.3 7786.65 11916.1Z" fill="#0085EB"/>
<path d="M7755.55 12496.4C7755.55 12478.1 7757.38 12459.8 7757.38 12441.5C7770.19 12459.8 7770.19 12478.1 7755.55 12496.4Z" fill="#0085EB"/>
<path d="M7761.04 12329.8C7766.53 12329.8 7770.19 12331.7 7775.68 12333.5C7770.19 12346.3 7766.53 12359.1 7761.04 12370.1C7753.72 12355.4 7753.72 12342.6 7761.04 12329.8Z" fill="#0085EB"/>
<path d="M9095.43 13651.4C9025.88 13673.4 8954.49 13653.2 8890.43 13642.2C8780.6 13623.9 8657.96 13660.5 8560.95 13576.3C8738.5 13611.1 8919.71 13607.5 9095.43 13651.4Z" fill="#005FA6"/>
<path d="M8734.84 13212.1C8678.1 13179.1 8637.83 13131.6 8610.37 13073C8667.12 13105.9 8712.88 13146.2 8740.33 13208.4L8734.84 13212.1Z" fill="#005FA6"/>
<path d="M8830 13321.9C8789.73 13301.8 8769.59 13283.5 8760.44 13246.9C8797.05 13259.7 8815.35 13279.8 8830 13321.9Z" fill="#005FA6"/>
<path d="M8738.47 13208.4C8742.13 13213.9 8743.96 13219.4 8747.62 13223.1C8742.13 13219.4 8738.47 13215.8 8732.98 13212.1C8734.81 13212.1 8738.47 13208.4 8738.47 13208.4Z" fill="#005FA6"/>
<path d="M8568.27 13686.2C8716.53 13680.7 8864.8 13677 9011.24 13702.7C8903.24 13744.8 8789.75 13710 8679.93 13721C8641.49 13724.6 8595.73 13713.6 8592.07 13774C8586.57 13775.9 8579.25 13779.5 8573.76 13781.4C8571.93 13748.4 8570.1 13717.3 8568.27 13686.2Z" fill="#0085EB"/>
<path d="M7955.07 9974.05C7953.24 9884.36 7949.58 9794.67 7947.75 9704.98C7945.92 9653.73 7933.11 9620.78 7872.7 9651.9C7869.04 9648.24 7863.55 9646.41 7859.89 9642.74C7876.36 9606.14 7911.14 9587.83 7938.6 9560.38C8088.69 9626.27 8249.77 9633.59 8409.02 9659.22C8379.73 9756.23 8398.04 9856.91 8388.89 9953.92C8282.72 9990.53 8172.89 9963.07 8064.9 9970.39C8028.29 9975.88 7991.68 9974.05 7955.07 9974.05Z" fill="#3B3C43"/>
<path d="M8873.94 12326.2C8844.65 12287.7 8817.19 12247.5 8787.91 12209C8793.4 12203.5 8798.89 12198 8804.38 12190.7C8831.84 12229.2 8861.12 12269.4 8888.58 12307.9C8884.92 12315.2 8879.43 12320.7 8873.94 12326.2Z" fill="#005FA6"/>
<path d="M8787.92 12209C8775.1 12190.7 8764.12 12172.4 8751.31 12154.1C8756.8 12148.6 8762.29 12144.9 8769.61 12139.5C8782.42 12155.9 8793.41 12174.2 8806.22 12190.7C8798.9 12196.2 8793.41 12201.7 8787.92 12209Z" fill="#005FA6"/>
<path d="M8912.39 12340.8C8923.38 12351.8 8939.85 12364.6 8925.21 12375.6C8908.73 12388.4 8903.24 12368.3 8897.75 12353.6C8903.24 12350 8906.9 12346.3 8912.39 12340.8Z" fill="#005FA6"/>
<path d="M8890.44 12309.7C8897.76 12320.7 8905.08 12331.7 8914.23 12342.6C8908.74 12346.3 8903.25 12351.8 8899.59 12357.3C8892.27 12348.1 8883.12 12337.1 8875.79 12328C8879.46 12320.7 8884.95 12315.2 8890.44 12309.7Z" fill="#005FA6"/>
<path d="M8515.15 11841.1C8507.83 11835.6 8502.34 11830.1 8495.02 11824.6C8500.51 11819.1 8507.83 11813.6 8513.32 11808.1C8518.81 11813.6 8524.3 11819.1 8527.96 11826.5C8524.3 11831.9 8520.64 11835.6 8515.15 11841.1Z" fill="#0085EB"/>
<path d="M8538.96 11837.4C8533.47 11842.9 8527.97 11850.2 8520.65 11855.7C8516.99 11852.1 8515.16 11846.6 8515.16 11841.1C8518.82 11835.6 8524.31 11830.1 8527.98 11826.5C8533.47 11828.3 8537.13 11831.9 8538.96 11837.4Z" fill="#0085EB"/>
<path d="M8646.97 10905.7C8672.6 10905.7 8698.22 10907.6 8725.68 10907.6C8701.89 10924 8679.92 10940.5 8656.12 10958.8C8650.63 10951.5 8645.14 10944.2 8639.65 10938.7C8641.48 10925.9 8643.31 10916.7 8646.97 10905.7Z" fill="#0085EB"/>
<path d="M8656.14 10957C8650.65 10960.7 8646.99 10966.1 8641.5 10969.8C8636.01 10964.3 8628.69 10958.8 8623.2 10953.3C8628.69 10947.8 8634.18 10942.4 8641.5 10935C8645.16 10944.2 8650.65 10951.5 8656.14 10957Z" fill="#0085EB"/>
<path d="M8584.74 10519.5C8549.96 10503 8533.49 10481.1 8533.49 10448.1C8533.49 10444.5 8548.13 10437.2 8553.62 10439C8590.23 10451.8 8592.06 10481.1 8584.74 10519.5Z" fill="#005FA6"/>
<path d="M8409.01 9661.05C8251.59 9635.42 8088.68 9626.27 7938.58 9562.2C7953.23 9531.09 7978.85 9503.63 7969.7 9465.19C8147.25 9472.51 8324.81 9448.71 8502.36 9478C8460.26 9479.83 8418.16 9481.66 8376.06 9485.32C8376.06 9488.98 8376.06 9492.65 8374.23 9496.31C8416.33 9496.31 8456.6 9496.31 8515.17 9496.31C8462.09 9534.75 8399.85 9492.65 8376.06 9553.05C8361.41 9595.15 8385.21 9628.1 8409.01 9661.05Z" fill="#33A7FF"/>
<path d="M8482.23 6412.02C8399.86 6298.53 8361.42 6194.2 8337.63 6082.54C8328.47 6036.78 8352.27 6012.99 8396.2 6011.15C8434.64 6009.32 8462.1 6023.97 8463.93 6066.07C8469.42 6174.06 8476.74 6282.06 8482.23 6412.02Z" fill="#33A7FF"/>
<path d="M7997.19 5714.63C7975.22 5729.27 7951.43 5743.92 7918.48 5765.88C7911.16 5670.7 7922.14 5581.01 7900.17 5494.98C8004.51 5524.26 7993.53 5615.79 8008.17 5694.49C8004.51 5701.82 8000.85 5707.31 7997.19 5714.63Z" fill="#33A7FF"/>
<path d="M8317.49 5731.11C8315.66 5701.82 8312 5670.7 8310.17 5641.42C8317.49 5637.75 8330.3 5628.6 8332.13 5630.43C8387.05 5699.99 8414.5 5782.36 8438.3 5866.56C8443.79 5884.86 8429.15 5894.02 8412.67 5895.85C8385.22 5899.51 8365.08 5886.69 8357.76 5861.07C8344.95 5817.14 8341.29 5771.38 8317.49 5731.11Z" fill="#33A7FF"/>
<path d="M8346.78 6309.52C8390.71 6346.13 8409.01 6388.23 8423.66 6430.33C8430.98 6450.46 8456.61 6477.92 8430.98 6494.39C8410.84 6507.2 8377.9 6501.71 8352.27 6499.88C8319.32 6498.05 8317.49 6470.6 8317.49 6446.8C8315.66 6401.04 8322.98 6357.11 8346.78 6309.52Z" fill="#0085EB"/>
<path d="M8332.1 6867.81C8332.1 6884.28 8332.1 6900.76 8332.1 6919.06C8315.63 6902.59 8315.63 6886.11 8332.1 6867.81Z" fill="#004B85"/>
<path d="M8425.49 3212.42C8423.65 3208.76 8421.82 3203.27 8421.82 3199.61C8423.65 3205.1 8423.65 3208.76 8425.49 3212.42Z" fill="#005FA6"/>
<path d="M7546.86 3787.18C7546.86 3660.88 7667.66 3402.78 7761.02 3333.23C7682.31 3497.97 7614.58 3642.57 7546.86 3787.18Z" fill="#33A7FF"/>
<path d="M7779.37 3267.33C7781.2 3272.82 7783.03 3276.48 7783.03 3281.98C7783.03 3283.81 7779.37 3285.64 7777.54 3287.47C7775.71 3281.98 7773.88 3278.31 7773.88 3272.82C7773.88 3270.99 7777.54 3269.16 7779.37 3267.33Z" fill="#0085EB"/>
<path d="M8593.91 4307.03C8506.05 4274.08 8416.36 4332.65 8321.17 4301.54C8396.22 4217.34 8511.54 4250.28 8593.91 4200.86C8615.87 4215.51 8637.84 4230.15 8665.3 4248.45C8639.67 4268.59 8617.7 4288.72 8593.91 4307.03Z" fill="#F1DAD2"/>
<path d="M8778.79 4978.79C8789.78 4986.11 8797.1 5000.76 8787.94 5008.08C8773.3 5017.23 8773.3 4997.1 8769.64 4989.77C8773.3 4986.11 8776.96 4982.45 8778.79 4978.79Z" fill="#0085EB"/>
<path d="M8769.61 4956.83C8773.27 4964.15 8776.93 4971.47 8778.76 4978.79C8775.1 4982.45 8771.44 4984.28 8769.61 4987.95C8764.12 4982.45 8756.8 4975.13 8751.31 4969.64C8758.63 4965.98 8764.12 4962.32 8769.61 4956.83Z" fill="#0085EB"/>
<path d="M7912.99 4365.59C7925.8 4376.58 7940.44 4387.56 7953.26 4398.54C7953.26 4405.86 7953.26 4413.19 7953.26 4420.51C7869.06 4504.71 7845.26 4631.01 7753.74 4711.55C7751.91 4709.72 7748.25 4706.05 7746.42 4704.22C7768.38 4610.87 7826.96 4535.82 7872.72 4455.29C7887.36 4426 7916.65 4404.03 7912.99 4365.59Z" fill="#0085EB"/>
<path d="M7750.04 4929.37C7751.87 4929.37 7753.7 4929.37 7755.53 4931.2C7753.7 4929.37 7753.7 4929.37 7750.04 4929.37Z" fill="#0085EB"/>
<path d="M7753.74 4711.55C7748.25 4715.21 7744.59 4718.87 7739.09 4722.53C7740.93 4717.04 7744.59 4709.72 7746.42 4704.22C7748.25 4706.06 7750.08 4709.72 7753.74 4711.55Z" fill="#0085EB"/>
<path d="M8293.71 4144.12C8297.37 4149.61 8299.2 4156.93 8302.86 4162.42C8293.71 4237.47 8313.84 4312.52 8293.71 4387.56C8187.54 4378.41 8081.38 4369.26 7973.38 4358.28C7982.53 4286.89 7942.26 4241.13 7894.67 4199.03C7911.15 4189.88 7929.45 4182.56 7947.75 4173.4C7977.04 4188.05 8006.33 4195.37 8041.11 4186.22C8125.31 4171.57 8209.51 4158.76 8293.71 4144.12Z" fill="#3B3C43"/>
<path d="M8623.19 2659.63C8533.5 2584.58 8451.13 2502.21 8385.23 2403.37C8482.25 2467.43 8566.45 2544.31 8636 2637.66C8630.51 2644.98 8626.85 2652.3 8623.19 2659.63Z" fill="#0085EB"/>
<path d="M8692.7 2709.05C8700.02 2716.38 8711 2725.53 8696.36 2736.51C8694.53 2738.34 8685.37 2727.36 8678.05 2723.7C8683.54 2718.21 8687.21 2712.71 8692.7 2709.05Z" fill="#0085EB"/>
<path d="M8678.09 2721.86C8672.6 2716.37 8665.28 2709.05 8659.79 2703.55C8663.45 2698.06 8668.94 2692.57 8672.6 2687.08C8678.09 2694.4 8685.41 2701.72 8690.9 2709.05C8687.24 2712.71 8683.58 2718.2 8678.09 2721.86Z" fill="#0085EB"/>
<path d="M8659.79 2703.56C8650.64 2696.24 8639.66 2688.92 8652.47 2677.94C8654.3 2676.11 8665.29 2683.43 8672.61 2687.09C8668.95 2692.58 8665.29 2698.07 8659.79 2703.56Z" fill="#0085EB"/>
<path d="M8634.13 2637.66C8643.28 2644.98 8652.43 2654.13 8641.45 2665.12C8639.62 2666.95 8628.64 2661.46 8621.32 2659.63C8626.81 2652.3 8630.47 2644.98 8634.13 2637.66Z" fill="#0085EB"/>
<path d="M7841.57 2516.85C7832.42 2555.29 7823.27 2591.9 7814.12 2630.34C7781.17 2617.53 7759.2 2591.9 7770.19 2555.29C7781.17 2520.51 7808.63 2509.53 7841.57 2516.85Z" fill="#33A7FF"/>
<path d="M7843.41 2516.85C7845.24 2513.19 7847.07 2511.36 7848.9 2507.7C7848.9 2509.53 7848.9 2511.36 7848.9 2511.36C7847.07 2513.19 7843.41 2515.02 7843.41 2516.85Z" fill="#33A7FF"/>
<path d="M7810.48 5518.77C7799.5 5527.92 7792.18 5555.38 7773.87 5537.08C7762.89 5526.09 7781.19 5513.28 7794.01 5504.13C7799.5 5507.79 7804.99 5513.28 7810.48 5518.77Z" fill="#005FA6"/>
<path d="M7843.39 9683.01C7823.25 9659.22 7847.05 9653.73 7859.86 9644.57C7863.52 9646.4 7869.01 9650.07 7872.67 9653.73C7861.69 9662.88 7852.54 9672.03 7841.56 9681.18L7843.39 9683.01Z" fill="#3B3C43"/>
<path d="M7843.42 9681.19C7839.76 9684.85 7836.1 9688.51 7832.44 9692.17C7832.44 9688.51 7830.61 9684.85 7830.61 9681.19C7834.27 9681.19 7839.76 9683.02 7843.42 9683.02V9681.19Z" fill="#3B3C43"/>
<path d="M8302.87 1636.41C8357.79 1707.8 8295.55 1777.36 8297.38 1848.74C8299.21 1892.67 8301.04 1938.44 8301.04 1982.37C8196.71 1976.87 8090.54 1969.55 7986.21 1964.06C7988.04 1901.83 7988.04 1839.59 7988.04 1777.36C7988.04 1749.9 7997.19 1715.12 7951.43 1711.46C7947.77 1676.68 7980.72 1660.21 7993.53 1634.58C8094.21 1627.26 8198.54 1652.89 8299.21 1623.6C8301.04 1629.09 8302.87 1632.75 8302.87 1636.41Z" fill="#33A7FF"/>
<path d="M8299.19 1623.6C8198.52 1652.89 8096.02 1627.26 7993.51 1634.58C7991.68 1621.77 7989.85 1608.96 7986.19 1596.15C8008.15 1535.74 8055.75 1517.44 8114.32 1515.61C8171.06 1515.61 8229.64 1515.61 8286.38 1515.61C8290.04 1530.25 8295.53 1544.89 8299.19 1559.54C8301.02 1583.33 8299.19 1603.47 8299.19 1623.6Z" fill="#3B3C43"/>
<path d="M7720.77 1940.26C7704.3 1980.53 7671.35 2004.33 7621.93 2040.94C7636.57 1971.38 7671.35 1947.58 7711.62 1927.45C7715.28 1931.11 7718.94 1936.6 7720.77 1940.26Z" fill="#33A7FF"/>
<path d="M7834.23 1806.65C7839.72 1813.97 7845.21 1817.63 7845.21 1819.46C7841.55 1823.12 7837.89 1828.61 7834.23 1830.44C7830.57 1832.27 7825.08 1828.61 7821.42 1826.78C7823.25 1821.29 7828.74 1813.97 7834.23 1806.65Z" fill="#33A7FF"/>
<path d="M7711.63 1927.46C7722.62 1920.14 7733.6 1912.81 7744.58 1907.32C7748.24 1909.15 7750.07 1912.81 7753.73 1914.64C7742.75 1921.97 7731.77 1931.12 7720.79 1938.44C7718.96 1936.61 7715.3 1931.12 7711.63 1927.46Z" fill="#33A7FF"/>
<path d="M7786.64 1876.2C7788.47 1872.54 7792.13 1867.05 7793.96 1863.38C7806.77 1874.37 7793.96 1874.37 7786.64 1876.2Z" fill="#33A7FF"/>
<path d="M7951.38 1711.47C7949.55 1713.3 7947.72 1715.13 7947.72 1718.79C7949.55 1716.96 7951.38 1715.13 7951.38 1711.47Z" fill="#33A7FF"/>
<path d="M7603.59 2057.42C7607.25 2051.92 7609.08 2048.26 7612.74 2042.77C7625.56 2053.75 7614.58 2055.58 7607.25 2059.25C7605.42 2061.08 7603.59 2057.42 7603.59 2057.42Z" fill="#33A7FF"/>
<path d="M7770.16 1896.34C7764.67 1903.66 7759.18 1909.15 7753.69 1916.47C7750.03 1914.64 7748.2 1910.98 7744.54 1909.15C7751.86 1903.66 7759.18 1900 7768.33 1894.51L7770.16 1896.34Z" fill="#33A7FF"/>
<path d="M7788.51 1876.2C7783.01 1881.69 7775.69 1889.01 7770.2 1894.51L7768.37 1892.67C7773.86 1887.18 7781.18 1881.69 7788.51 1876.2Z" fill="#33A7FF"/>
<path d="M8410.83 2154.43C8374.22 2169.07 8344.94 2205.68 8299.17 2187.38C8290.02 2141.62 8302.84 2108.67 8352.26 2101.35C8429.14 2090.37 8506.01 2084.87 8582.89 2125.14C8522.49 2147.11 8460.25 2112.33 8410.83 2154.43Z" fill="#33A7FF"/>
<path d="M8315.67 2242.29C8359.6 2234.97 8396.21 2211.17 8432.82 2189.2C8500.55 2194.7 8566.44 2156.26 8652.47 2174.56C8535.32 2225.81 8427.33 2253.27 8321.16 2280.73C8319.33 2269.74 8317.5 2255.1 8315.67 2242.29Z" fill="#0085EB"/>
<path d="M8319.32 1446.05C8301.02 1429.57 8297.36 1407.61 8302.85 1385.64C8418.17 1407.61 8533.49 1411.27 8646.97 1365.51C8678.09 1363.68 8707.38 1361.85 8725.68 1394.8C8628.67 1440.56 8518.84 1407.61 8418.17 1436.9C8385.22 1446.05 8352.27 1444.22 8319.32 1446.05Z" fill="#0085EB"/>
<path d="M8301.02 1561.37C8297.36 1546.72 8291.87 1532.08 8288.21 1517.44C8299.19 1508.29 8308.35 1499.13 8319.33 1489.98C8421.83 1500.96 8522.51 1457.03 8648.81 1480.83C8518.85 1510.12 8409.02 1535.74 8301.02 1561.37Z" fill="#33A7FF"/>
<path d="M7770.21 1255.68C7762.89 1259.34 7757.4 1264.83 7750.08 1268.5C7744.59 1246.53 7762.89 1259.34 7770.21 1255.68Z" fill="#F1DAD2"/>
<path d="M7618.28 11094.3C7568.86 11074.1 7537.74 11039.4 7508.45 10975.3C7572.52 11004.6 7605.47 11039.4 7625.6 11087C7623.77 11088.8 7621.94 11090.6 7618.28 11094.3Z" fill="#33A7FF"/>
<path d="M7539.53 11425.6C7526.71 11480.5 7491.93 11520.8 7449.83 11559.2C7457.16 11502.5 7488.27 11456.7 7530.37 11416.4C7532.2 11420.1 7535.86 11421.9 7539.53 11425.6Z" fill="#0085EB"/>
<path d="M7662.2 11141.9C7673.18 11143.7 7686 11143.7 7696.98 11145.5C7722.6 11147.4 7737.25 11160.2 7731.76 11185.8C7729.93 11195 7720.77 11207.8 7711.62 11211.4C7684.17 11220.6 7676.84 11198.6 7667.69 11178.5C7664.03 11167.5 7660.37 11156.5 7656.71 11143.7L7662.2 11141.9Z" fill="#33A7FF"/>
<path d="M7658.51 11143.7C7643.86 11136.4 7638.37 11125.4 7638.37 11110.8L7643.86 11105.3C7658.51 11112.6 7662.17 11125.4 7662.17 11141.9L7658.51 11143.7Z" fill="#33A7FF"/>
<path d="M7530.41 11416.4C7535.9 11409.1 7541.39 11403.6 7546.88 11398.1C7548.71 11400 7552.37 11403.6 7554.2 11405.5C7548.71 11412.8 7543.22 11420.1 7537.73 11427.4C7535.9 11421.9 7532.24 11420.1 7530.41 11416.4Z" fill="#0085EB"/>
<path d="M7568.82 11381.7C7563.33 11389 7559.67 11396.3 7554.18 11403.6C7552.35 11401.8 7548.69 11398.1 7546.86 11396.3C7550.52 11387.1 7556.01 11379.8 7568.82 11381.7Z" fill="#0085EB"/>
<path d="M7568.81 11381.7C7570.64 11378 7572.47 11372.5 7574.3 11368.8C7587.12 11378 7574.3 11378 7568.81 11381.7Z" fill="#0085EB"/>
<path d="M7638.37 11110.8C7631.05 11105.3 7625.56 11099.8 7618.23 11094.3C7620.06 11092.5 7623.73 11088.8 7625.56 11087C7631.05 11094.3 7636.54 11099.8 7642.03 11107.1C7642.03 11105.3 7638.37 11110.8 7638.37 11110.8Z" fill="#33A7FF"/>
<path d="M7636.55 10590.9C7687.8 10477.4 7647.53 10376.7 7581.64 10277.9C7669.5 10307.2 7647.53 10420.7 7735.39 10439C7733.56 10450 7733.56 10462.8 7728.07 10471.9C7700.61 10515.9 7673.16 10558 7643.87 10601.9C7642.04 10596.4 7640.21 10592.7 7636.55 10590.9Z" fill="#33A7FF"/>
<path d="M7629.23 10618.4C7620.07 10684.3 7570.65 10726.4 7541.37 10781.3C7532.21 10708.1 7572.48 10656.8 7620.07 10609.2C7623.74 10612.9 7625.57 10616.5 7629.23 10618.4Z" fill="#33A7FF"/>
<path d="M7645.73 10600.1C7640.24 10607.4 7634.75 10612.9 7629.26 10620.2C7625.6 10616.5 7623.77 10614.7 7620.11 10611C7625.6 10603.7 7631.09 10598.2 7636.58 10590.9C7640.24 10592.7 7642.07 10596.4 7645.73 10600.1Z" fill="#33A7FF"/>
<path d="M7497.44 11830.1C7552.35 11848.4 7592.62 11881.4 7632.89 11945.4C7554.18 11925.3 7523.07 11881.4 7497.44 11830.1Z" fill="#0085EB"/>
<path d="M8174.69 13561.7C8165.54 13570.9 8158.22 13569 8150.9 13558C8158.22 13559.9 8165.54 13561.7 8174.69 13561.7Z" fill="#003A66"/>
<path d="M8485.9 11733.1C8480.41 11738.6 8474.92 11742.3 8471.26 11747.7C8463.94 11729.4 8473.09 11727.6 8485.9 11733.1Z" fill="#005FA6"/>
</g>
<defs>
<clipPath id="clip0_3009_4880">
<rect width="14954.7" height="16730.2" fill="white" transform="translate(0 0.8125)"/>
</clipPath>
</defs>
</svg>
